<svg xmlns="http://www.w3.org/2000/svg" xmlns:xlink="http://www.w3.org/1999/xlink" contentStyleType="text/css" height="445.8px" preserveAspectRatio="none" style="width:937px;height:445px;background:#FFFFFF;" version="1.1" viewBox="0 0 937 445" width="937.8px" zoomAndPan="magnify"><defs/><g><!--class SignUp--><g id="elem_SignUp"><rect codeLine="3" fill="#F1F1F1" height="107.0086" id="SignUp" rx="1.5" ry="1.5" style="stroke:#181818;stroke-width:0.3;" width="158.0227" x="185.4" y="4.2"/><ellipse cx="248.0862" cy="13.8" fill="#ADD1B2" rx="6.6" ry="6.6" style="stroke:#181818;stroke-width:0.6;"/><path d="M249.7456,11.325 Q249.8394,11.1938 249.9519,11.1281 Q250.0644,11.0625 250.1956,11.0625 Q250.4206,11.0625 250.5612,11.2219 Q250.7019,11.3719 250.7019,11.7375 L250.7019,12.6094 Q250.7019,12.975 250.5612,13.1344 Q250.4206,13.2938 250.1956,13.2938 Q249.9894,13.2938 249.8675,13.1719 Q249.7456,13.0594 249.68,12.75 Q249.6519,12.5344 249.5394,12.4219 Q249.3425,12.1969 248.9769,12.0656 Q248.6112,11.9344 248.2362,11.9344 Q247.7769,11.9344 247.3925,12.1313 Q247.0175,12.3281 246.7175,12.7781 Q246.4269,13.2281 246.4269,13.8469 L246.4269,14.5031 Q246.4269,15.2437 246.9612,15.7406 Q247.4956,16.2281 248.4519,16.2281 Q249.0144,16.2281 249.4081,16.0781 Q249.6425,15.9844 249.8956,15.7219 Q250.055,15.5625 250.1394,15.5156 Q250.2331,15.4688 250.355,15.4688 Q250.5519,15.4688 250.7019,15.6281 Q250.8612,15.7781 250.8612,15.9844 Q250.8612,16.1906 250.655,16.4344 Q250.355,16.7813 249.8769,16.9781 Q249.23,17.25 248.4519,17.25 Q247.5425,17.25 246.8206,16.875 Q246.23,16.575 245.8175,15.9375 Q245.405,15.2906 245.405,14.5219 L245.405,13.8281 Q245.405,13.0313 245.7706,12.3469 Q246.1456,11.6531 246.8019,11.2875 Q247.4581,10.9125 248.1987,10.9125 Q248.6394,10.9125 249.0237,11.0156 Q249.4175,11.1094 249.7456,11.325 Z " fill="#000000"/><text fill="#000000" font-family="sans-serif" font-size="8.4" lengthAdjust="spacing" textLength="27.5502" x="260.3862" y="17.2781">SignUp</text><line style="stroke:#181818;stroke-width:0.3;" x1="186" x2="342.8227" y1="23.4" y2="23.4"/><rect fill="none" height="3.6" style="stroke:#C82930;stroke-width:0.6;" width="3.6" x="190.2" y="30.4863"/><text fill="#000000" font-family="sans-serif" font-size="8.4" lengthAdjust="spacing" textLength="76.5721" x="197.4" y="34.8645">FirebaseAuth mAuth</text><rect fill="none" height="3.6" style="stroke:#C82930;stroke-width:0.6;" width="3.6" x="190.2" y="41.659"/><text fill="#000000" font-family="sans-serif" font-size="8.4" lengthAdjust="spacing" textLength="77.499" x="197.4" y="46.0371">FirebaseFirestore db</text><rect fill="none" height="3.6" style="stroke:#C82930;stroke-width:0.6;" width="3.6" x="190.2" y="52.8316"/><text fill="#000000" font-family="sans-serif" font-size="8.4" lengthAdjust="spacing" textLength="53.2137" x="197.4" y="57.2098">User newUser</text><rect fill="none" height="3.6" style="stroke:#C82930;stroke-width:0.6;" width="3.6" x="190.2" y="64.0043"/><text fill="#000000" font-family="sans-serif" font-size="8.4" lengthAdjust="spacing" textLength="84.5086" x="197.4" y="68.3824">FirebaseManager mng</text><line style="stroke:#181818;stroke-width:0.3;" x1="186" x2="342.8227" y1="72.8906" y2="72.8906"/><ellipse cx="192" cy="81.777" fill="#84BE84" rx="1.8" ry="1.8" style="stroke:#038048;stroke-width:0.6;"/><text fill="#000000" font-family="sans-serif" font-size="8.4" lengthAdjust="spacing" textLength="142.4227" x="197.4" y="84.3551">onCreate(Bundle savedInstanceState)</text><rect fill="#F24D5C" height="3.6" style="stroke:#C82930;stroke-width:0.6;" width="3.6" x="190.2" y="91.1496"/><text fill="#000000" font-family="sans-serif" font-size="8.4" lengthAdjust="spacing" textLength="45.7529" x="197.4" y="95.5277">SignUpBtn()</text><rect fill="#F24D5C" height="3.6" style="stroke:#C82930;stroke-width:0.6;" width="3.6" x="190.2" y="102.3223"/><text fill="#000000" font-family="sans-serif" font-size="8.4" lengthAdjust="spacing" textLength="42.0246" x="197.4" y="106.7004">LogInLink()</text></g><!--class LogIn--><g id="elem_LogIn"><rect codeLine="13" fill="#F1F1F1" height="73.4906" id="LogIn" rx="1.5" ry="1.5" style="stroke:#181818;stroke-width:0.3;" width="158.0227" x="6.6" y="21"/><ellipse cx="72.5511" cy="30.6" fill="#ADD1B2" rx="6.6" ry="6.6" style="stroke:#181818;stroke-width:0.6;"/><path d="M74.2104,28.125 Q74.3042,27.9938 74.4167,27.9281 Q74.5292,27.8625 74.6604,27.8625 Q74.8854,27.8625 75.0261,28.0219 Q75.1667,28.1719 75.1667,28.5375 L75.1667,29.4094 Q75.1667,29.775 75.0261,29.9344 Q74.8854,30.0938 74.6604,30.0938 Q74.4542,30.0938 74.3323,29.9719 Q74.2104,29.8594 74.1448,29.55 Q74.1167,29.3344 74.0042,29.2219 Q73.8073,28.9969 73.4417,28.8656 Q73.0761,28.7344 72.7011,28.7344 Q72.2417,28.7344 71.8573,28.9313 Q71.4823,29.1281 71.1823,29.5781 Q70.8917,30.0281 70.8917,30.6469 L70.8917,31.3031 Q70.8917,32.0437 71.4261,32.5406 Q71.9604,33.0281 72.9167,33.0281 Q73.4792,33.0281 73.8729,32.8781 Q74.1073,32.7844 74.3604,32.5219 Q74.5198,32.3625 74.6042,32.3156 Q74.6979,32.2688 74.8198,32.2688 Q75.0167,32.2688 75.1667,32.4281 Q75.3261,32.5781 75.3261,32.7844 Q75.3261,32.9906 75.1198,33.2344 Q74.8198,33.5813 74.3417,33.7781 Q73.6948,34.05 72.9167,34.05 Q72.0073,34.05 71.2854,33.675 Q70.6948,33.375 70.2823,32.7375 Q69.8698,32.0906 69.8698,31.3219 L69.8698,30.6281 Q69.8698,29.8312 70.2354,29.1469 Q70.6104,28.4531 71.2667,28.0875 Q71.9229,27.7125 72.6636,27.7125 Q73.1042,27.7125 73.4886,27.8156 Q73.8823,27.9094 74.2104,28.125 Z " fill="#000000"/><text fill="#000000" font-family="sans-serif" font-size="8.4" lengthAdjust="spacing" textLength="21.0205" x="84.8511" y="34.0781">LogIn</text><line style="stroke:#181818;stroke-width:0.3;" x1="7.2" x2="164.0227" y1="40.2" y2="40.2"/><rect fill="none" height="3.6" style="stroke:#C82930;stroke-width:0.6;" width="3.6" x="11.4" y="47.2863"/><text fill="#000000" font-family="sans-serif" font-size="8.4" lengthAdjust="spacing" textLength="76.5721" x="18.6" y="51.6645">FirebaseAuth mAuth</text><rect fill="none" height="3.6" style="stroke:#C82930;stroke-width:0.6;" width="3.6" x="11.4" y="58.459"/><text fill="#000000" font-family="sans-serif" font-size="8.4" lengthAdjust="spacing" textLength="84.5086" x="18.6" y="62.8371">FirebaseManager mng</text><line style="stroke:#181818;stroke-width:0.3;" x1="7.2" x2="164.0227" y1="67.3453" y2="67.3453"/><ellipse cx="13.2" cy="76.2316" fill="#84BE84" rx="1.8" ry="1.8" style="stroke:#038048;stroke-width:0.6;"/><text fill="#000000" font-family="sans-serif" font-size="8.4" lengthAdjust="spacing" textLength="142.4227" x="18.6" y="78.8098">onCreate(Bundle savedInstanceState)</text><rect fill="#F24D5C" height="3.6" style="stroke:#C82930;stroke-width:0.6;" width="3.6" x="11.4" y="85.6043"/><text fill="#000000" font-family="sans-serif" font-size="8.4" lengthAdjust="spacing" textLength="33.1447" x="18.6" y="89.9824">SignUp()</text></g><!--class FirebaseManager--><g id="elem_FirebaseManager"><rect codeLine="20" fill="#F1F1F1" height="107.0086" id="FirebaseManager" rx="1.5" ry="1.5" style="stroke:#181818;stroke-width:0.3;" width="138.3926" x="18.6" y="208.5"/><ellipse cx="52.3292" cy="218.1" fill="#ADD1B2" rx="6.6" ry="6.6" style="stroke:#181818;stroke-width:0.6;"/><path d="M53.9886,215.625 Q54.0823,215.4938 54.1948,215.4281 Q54.3073,215.3625 54.4386,215.3625 Q54.6636,215.3625 54.8042,215.5219 Q54.9448,215.6719 54.9448,216.0375 L54.9448,216.9094 Q54.9448,217.275 54.8042,217.4344 Q54.6636,217.5938 54.4386,217.5938 Q54.2323,217.5938 54.1104,217.4719 Q53.9886,217.3594 53.9229,217.05 Q53.8948,216.8344 53.7823,216.7219 Q53.5854,216.4969 53.2198,216.3656 Q52.8542,216.2344 52.4792,216.2344 Q52.0198,216.2344 51.6354,216.4313 Q51.2604,216.6281 50.9604,217.0781 Q50.6698,217.5281 50.6698,218.1469 L50.6698,218.8031 Q50.6698,219.5438 51.2042,220.0406 Q51.7386,220.5281 52.6948,220.5281 Q53.2573,220.5281 53.6511,220.3781 Q53.8854,220.2844 54.1386,220.0219 Q54.2979,219.8625 54.3823,219.8156 Q54.4761,219.7687 54.5979,219.7687 Q54.7948,219.7687 54.9448,219.9281 Q55.1042,220.0781 55.1042,220.2844 Q55.1042,220.4906 54.8979,220.7344 Q54.5979,221.0812 54.1198,221.2781 Q53.4729,221.55 52.6948,221.55 Q51.7854,221.55 51.0636,221.175 Q50.4729,220.875 50.0604,220.2375 Q49.6479,219.5906 49.6479,218.8219 L49.6479,218.1281 Q49.6479,217.3312 50.0136,216.6469 Q50.3886,215.9531 51.0448,215.5875 Q51.7011,215.2125 52.4417,215.2125 Q52.8823,215.2125 53.2667,215.3156 Q53.6604,215.4094 53.9886,215.625 Z " fill="#000000"/><text fill="#000000" font-family="sans-serif" font-size="8.4" lengthAdjust="spacing" textLength="65.8342" x="64.6292" y="221.5781">FirebaseManager</text><line style="stroke:#181818;stroke-width:0.3;" x1="19.2" x2="156.3926" y1="227.7" y2="227.7"/><rect fill="none" height="3.6" style="stroke:#C82930;stroke-width:0.6;" width="3.6" x="23.4" y="234.7863"/><text fill="#000000" font-family="sans-serif" font-size="8.4" lengthAdjust="spacing" textLength="121.3939" x="30.6" y="239.1645">static FirebaseManager instance</text><rect fill="none" height="3.6" style="stroke:#C82930;stroke-width:0.6;" width="3.6" x="23.4" y="245.959"/><text fill="#000000" font-family="sans-serif" font-size="8.4" lengthAdjust="spacing" textLength="94.3154" x="30.6" y="250.3371">final FirebaseAuth mAuth</text><rect fill="none" height="3.6" style="stroke:#C82930;stroke-width:0.6;" width="3.6" x="23.4" y="257.1316"/><text fill="#000000" font-family="sans-serif" font-size="8.4" lengthAdjust="spacing" textLength="95.2424" x="30.6" y="261.5098">final FirebaseFirestore db</text><line style="stroke:#181818;stroke-width:0.3;" x1="19.2" x2="156.3926" y1="266.018" y2="266.018"/><rect fill="#F24D5C" height="3.6" style="stroke:#C82930;stroke-width:0.6;" width="3.6" x="23.4" y="273.1043"/><text fill="#000000" font-family="sans-serif" font-size="8.4" lengthAdjust="spacing" textLength="71.4287" x="30.6" y="277.4824">FirebaseManager()</text><ellipse cx="25.2" cy="286.077" fill="#84BE84" rx="1.8" ry="1.8" style="stroke:#038048;stroke-width:0.6;"/><text fill="#000000" font-family="sans-serif" font-size="8.4" lengthAdjust="spacing" textLength="122.7926" x="30.6" y="288.6551">static synchronized getInstance()</text><ellipse cx="25.2" cy="297.2496" fill="#84BE84" rx="1.8" ry="1.8" style="stroke:#038048;stroke-width:0.6;"/><text fill="#000000" font-family="sans-serif" font-size="8.4" lengthAdjust="spacing" textLength="34.5516" x="30.6" y="299.8277">getAuth()</text><ellipse cx="25.2" cy="308.4223" fill="#84BE84" rx="1.8" ry="1.8" style="stroke:#038048;stroke-width:0.6;"/><text fill="#000000" font-family="sans-serif" font-size="8.4" lengthAdjust="spacing" textLength="28.0096" x="30.6" y="311.0004">getDb()</text></g><!--class User--><g id="elem_User"><rect codeLine="30" fill="#F1F1F1" height="129.3539" id="User" rx="1.5" ry="1.5" style="stroke:#181818;stroke-width:0.3;" width="168.7195" x="180" y="197.1"/><ellipse cx="252.9422" cy="206.7" fill="#ADD1B2" rx="6.6" ry="6.6" style="stroke:#181818;stroke-width:0.6;"/><path d="M254.6016,204.225 Q254.6953,204.0938 254.8078,204.0281 Q254.9203,203.9625 255.0516,203.9625 Q255.2766,203.9625 255.4172,204.1219 Q255.5578,204.2719 255.5578,204.6375 L255.5578,205.5094 Q255.5578,205.875 255.4172,206.0344 Q255.2766,206.1938 255.0516,206.1938 Q254.8453,206.1938 254.7234,206.0719 Q254.6016,205.9594 254.5359,205.65 Q254.5078,205.4344 254.3953,205.3219 Q254.1984,205.0969 253.8328,204.9656 Q253.4672,204.8344 253.0922,204.8344 Q252.6328,204.8344 252.2484,205.0313 Q251.8734,205.2281 251.5734,205.6781 Q251.2828,206.1281 251.2828,206.7469 L251.2828,207.4031 Q251.2828,208.1437 251.8172,208.6406 Q252.3516,209.1281 253.3078,209.1281 Q253.8703,209.1281 254.2641,208.9781 Q254.4984,208.8844 254.7516,208.6219 Q254.9109,208.4625 254.9953,208.4156 Q255.0891,208.3688 255.2109,208.3688 Q255.4078,208.3688 255.5578,208.5281 Q255.7172,208.6781 255.7172,208.8844 Q255.7172,209.0906 255.5109,209.3344 Q255.2109,209.6813 254.7328,209.8781 Q254.0859,210.15 253.3078,210.15 Q252.3984,210.15 251.6766,209.775 Q251.0859,209.475 250.6734,208.8375 Q250.2609,208.1906 250.2609,207.4219 L250.2609,206.7281 Q250.2609,205.9313 250.6266,205.2469 Q251.0016,204.5531 251.6578,204.1875 Q252.3141,203.8125 253.0547,203.8125 Q253.4953,203.8125 253.8797,203.9156 Q254.2734,204.0094 254.6016,204.225 Z " fill="#000000"/><text fill="#000000" font-family="sans-serif" font-size="8.4" lengthAdjust="spacing" textLength="17.7352" x="265.2422" y="210.1781">User</text><line style="stroke:#181818;stroke-width:0.3;" x1="180.6" x2="348.1195" y1="216.3" y2="216.3"/><rect fill="none" height="3.6" style="stroke:#C82930;stroke-width:0.6;" width="3.6" x="184.8" y="223.3863"/><text fill="#000000" font-family="sans-serif" font-size="8.4" lengthAdjust="spacing" textLength="48.5584" x="192" y="227.7645">final String id</text><rect fill="none" height="3.6" style="stroke:#C82930;stroke-width:0.6;" width="3.6" x="184.8" y="234.559"/><text fill="#000000" font-family="sans-serif" font-size="8.4" lengthAdjust="spacing" textLength="61.6301" x="192" y="238.9371">String username</text><rect fill="none" height="3.6" style="stroke:#C82930;stroke-width:0.6;" width="3.6" x="184.8" y="245.7316"/><text fill="#000000" font-family="sans-serif" font-size="8.4" lengthAdjust="spacing" textLength="44.3502" x="192" y="250.1098">String email</text><line style="stroke:#181818;stroke-width:0.3;" x1="180.6" x2="348.1195" y1="254.618" y2="254.618"/><ellipse cx="186.6" cy="263.5043" fill="#84BE84" rx="1.8" ry="1.8" style="stroke:#038048;stroke-width:0.6;"/><text fill="#000000" font-family="sans-serif" font-size="8.4" lengthAdjust="spacing" textLength="153.1195" x="192" y="266.0824">User(String id, String name, String email)</text><ellipse cx="186.6" cy="274.677" fill="#84BE84" rx="1.8" ry="1.8" style="stroke:#038048;stroke-width:0.6;"/><text fill="#000000" font-family="sans-serif" font-size="8.4" lengthAdjust="spacing" textLength="38.2758" x="192" y="277.2551">getEmail()</text><ellipse cx="186.6" cy="285.8496" fill="#84BE84" rx="1.8" ry="1.8" style="stroke:#038048;stroke-width:0.6;"/><text fill="#000000" font-family="sans-serif" font-size="8.4" lengthAdjust="spacing" textLength="82.1543" x="192" y="288.4277">setEmail(String email)</text><ellipse cx="186.6" cy="297.0223" fill="#84BE84" rx="1.8" ry="1.8" style="stroke:#038048;stroke-width:0.6;"/><text fill="#000000" font-family="sans-serif" font-size="8.4" lengthAdjust="spacing" textLength="24.2771" x="192" y="299.6004">getId()</text><ellipse cx="186.6" cy="308.1949" fill="#84BE84" rx="1.8" ry="1.8" style="stroke:#038048;stroke-width:0.6;"/><text fill="#000000" font-family="sans-serif" font-size="8.4" lengthAdjust="spacing" textLength="56.0191" x="192" y="310.773">getUsername()</text><ellipse cx="186.6" cy="319.3676" fill="#84BE84" rx="1.8" ry="1.8" style="stroke:#038048;stroke-width:0.6;"/><text fill="#000000" font-family="sans-serif" font-size="8.4" lengthAdjust="spacing" textLength="117.1775" x="192" y="321.9457">setUsername(String username)</text></g><!--class AbstractFactory--><g id="elem_AbstractFactory"><rect codeLine="42" fill="#F1F1F1" height="62.318" id="AbstractFactory" rx="1.5" ry="1.5" style="stroke:#181818;stroke-width:0.3;" width="111.3059" x="453.9" y="26.4"/><ellipse cx="477.8803" cy="36" fill="#A9DCDF" rx="6.6" ry="6.6" style="stroke:#181818;stroke-width:0.6;"/><path d="M479.1928,37.0594 L476.7084,37.0594 L476.4553,37.6781 L476.7084,37.6781 Q477.074,37.6781 477.2334,37.8188 Q477.3928,37.9594 477.3928,38.1938 Q477.3928,38.4187 477.2334,38.5594 Q477.074,38.7 476.7084,38.7 L475.3303,38.7 Q474.9646,38.7 474.8146,38.5594 Q474.6553,38.4187 474.6553,38.1844 Q474.6553,37.9594 474.824,37.8188 Q474.9834,37.6687 475.3584,37.6781 L476.9615,33.6844 L476.2959,33.6844 Q475.9303,33.6844 475.7709,33.5437 Q475.6115,33.4031 475.6115,33.1687 Q475.6115,32.9438 475.7709,32.8031 Q475.9303,32.6625 476.2959,32.6625 L478.499,32.6625 L480.5334,37.6781 Q480.8896,37.6781 481.0021,37.7625 Q481.2365,37.9219 481.2365,38.1938 Q481.2365,38.4187 481.0771,38.5594 Q480.9271,38.7 480.5615,38.7 L479.1834,38.7 Q478.8178,38.7 478.6584,38.5594 Q478.499,38.4187 478.499,38.1844 Q478.499,37.9594 478.6584,37.8188 Q478.8178,37.6781 479.1834,37.6781 L479.4365,37.6781 L479.1928,37.0594 Z M478.7615,36.0375 L477.9459,34.0125 L477.1209,36.0375 L478.7615,36.0375 Z " fill="#000000"/><text fill="#000000" font-family="sans-serif" font-size="8.4" font-style="italic" lengthAdjust="spacing" textLength="58.8164" x="489.6092" y="39.4781">AbstractFactory</text><line style="stroke:#181818;stroke-width:0.3;" x1="454.5" x2="564.6059" y1="45.6" y2="45.6"/><line style="stroke:#181818;stroke-width:0.3;" x1="454.5" x2="564.6059" y1="50.4" y2="50.4"/><ellipse cx="460.5" cy="59.2863" fill="#84BE84" rx="1.8" ry="1.8" style="stroke:#038048;stroke-width:0.6;"/><text fill="#000000" font-family="sans-serif" font-size="8.4" lengthAdjust="spacing" textLength="89.6438" x="465.9" y="61.8645">buildClothing() : IBuilder</text><ellipse cx="460.5" cy="70.459" fill="#84BE84" rx="1.8" ry="1.8" style="stroke:#038048;stroke-width:0.6;"/><text fill="#000000" font-family="sans-serif" font-size="8.4" lengthAdjust="spacing" textLength="95.7059" x="465.9" y="73.0371">buildElectronic() : IBuilder</text><ellipse cx="460.5" cy="81.6316" fill="#84BE84" rx="1.8" ry="1.8" style="stroke:#038048;stroke-width:0.6;"/><text fill="#000000" font-family="sans-serif" font-size="8.4" lengthAdjust="spacing" textLength="92.4369" x="465.9" y="84.2098">buildFurniture() : IBuilder</text></g><!--class ClothingFactory--><g id="elem_ClothingFactory"><rect codeLine="48" fill="#F1F1F1" height="28.8" id="ClothingFactory" rx="1.5" ry="1.5" style="stroke:#181818;stroke-width:0.3;" width="78.0246" x="369.9" y="247.5"/><ellipse cx="378.9" cy="257.1" fill="#ADD1B2" rx="6.6" ry="6.6" style="stroke:#181818;stroke-width:0.6;"/><path d="M380.5594,254.625 Q380.6531,254.4937 380.7656,254.4281 Q380.8781,254.3625 381.0094,254.3625 Q381.2344,254.3625 381.375,254.5219 Q381.5156,254.6719 381.5156,255.0375 L381.5156,255.9094 Q381.5156,256.275 381.375,256.4344 Q381.2344,256.5938 381.0094,256.5938 Q380.8031,256.5938 380.6813,256.4719 Q380.5594,256.3594 380.4938,256.05 Q380.4656,255.8344 380.3531,255.7219 Q380.1563,255.4969 379.7906,255.3656 Q379.425,255.2344 379.05,255.2344 Q378.5906,255.2344 378.2063,255.4312 Q377.8313,255.6281 377.5313,256.0781 Q377.2406,256.5281 377.2406,257.1469 L377.2406,257.8031 Q377.2406,258.5438 377.775,259.0406 Q378.3094,259.5281 379.2656,259.5281 Q379.8281,259.5281 380.2219,259.3781 Q380.4563,259.2844 380.7094,259.0219 Q380.8688,258.8625 380.9531,258.8156 Q381.0469,258.7688 381.1688,258.7688 Q381.3656,258.7688 381.5156,258.9281 Q381.675,259.0781 381.675,259.2844 Q381.675,259.4906 381.4688,259.7344 Q381.1688,260.0813 380.6906,260.2781 Q380.0438,260.55 379.2656,260.55 Q378.3563,260.55 377.6344,260.175 Q377.0438,259.875 376.6312,259.2375 Q376.2188,258.5906 376.2188,257.8219 L376.2188,257.1281 Q376.2188,256.3313 376.5844,255.6469 Q376.9594,254.9531 377.6156,254.5875 Q378.2719,254.2125 379.0125,254.2125 Q379.4531,254.2125 379.8375,254.3156 Q380.2313,254.4094 380.5594,254.625 Z " fill="#000000"/><text fill="#000000" font-family="sans-serif" font-size="8.4" lengthAdjust="spacing" textLength="58.8246" x="387.3" y="260.5781">ClothingFactory</text><line style="stroke:#181818;stroke-width:0.3;" x1="370.5" x2="447.3246" y1="266.7" y2="266.7"/><line style="stroke:#181818;stroke-width:0.3;" x1="370.5" x2="447.3246" y1="271.5" y2="271.5"/></g><!--class ElectronicFactory--><g id="elem_ElectronicFactory"><rect codeLine="49" fill="#F1F1F1" height="28.8" id="ElectronicFactory" rx="1.5" ry="1.5" style="stroke:#181818;stroke-width:0.3;" width="84.0867" x="711.3" y="247.5"/><ellipse cx="720.3" cy="257.1" fill="#ADD1B2" rx="6.6" ry="6.6" style="stroke:#181818;stroke-width:0.6;"/><path d="M721.9594,254.625 Q722.0531,254.4937 722.1656,254.4281 Q722.2781,254.3625 722.4094,254.3625 Q722.6344,254.3625 722.775,254.5219 Q722.9156,254.6719 722.9156,255.0375 L722.9156,255.9094 Q722.9156,256.275 722.775,256.4344 Q722.6344,256.5938 722.4094,256.5938 Q722.2031,256.5938 722.0813,256.4719 Q721.9594,256.3594 721.8938,256.05 Q721.8656,255.8344 721.7531,255.7219 Q721.5563,255.4969 721.1906,255.3656 Q720.825,255.2344 720.45,255.2344 Q719.9906,255.2344 719.6062,255.4312 Q719.2312,255.6281 718.9313,256.0781 Q718.6406,256.5281 718.6406,257.1469 L718.6406,257.8031 Q718.6406,258.5438 719.175,259.0406 Q719.7094,259.5281 720.6656,259.5281 Q721.2281,259.5281 721.6219,259.3781 Q721.8562,259.2844 722.1094,259.0219 Q722.2688,258.8625 722.3531,258.8156 Q722.4469,258.7688 722.5688,258.7688 Q722.7656,258.7688 722.9156,258.9281 Q723.075,259.0781 723.075,259.2844 Q723.075,259.4906 722.8688,259.7344 Q722.5688,260.0813 722.0906,260.2781 Q721.4438,260.55 720.6656,260.55 Q719.7563,260.55 719.0344,260.175 Q718.4438,259.875 718.0313,259.2375 Q717.6188,258.5906 717.6188,257.8219 L717.6188,257.1281 Q717.6188,256.3313 717.9844,255.6469 Q718.3594,254.9531 719.0156,254.5875 Q719.6719,254.2125 720.4125,254.2125 Q720.8531,254.2125 721.2375,254.3156 Q721.6313,254.4094 721.9594,254.625 Z " fill="#000000"/><text fill="#000000" font-family="sans-serif" font-size="8.4" lengthAdjust="spacing" textLength="64.8867" x="728.7" y="260.5781">ElectronicFactory</text><line style="stroke:#181818;stroke-width:0.3;" x1="711.9" x2="794.7867" y1="266.7" y2="266.7"/><line style="stroke:#181818;stroke-width:0.3;" x1="711.9" x2="794.7867" y1="271.5" y2="271.5"/></g><!--class FurnitureFactory--><g id="elem_FurnitureFactory"><rect codeLine="50" fill="#F1F1F1" height="28.8" id="FurnitureFactory" rx="1.5" ry="1.5" style="stroke:#181818;stroke-width:0.3;" width="80.8178" x="469.2" y="247.5"/><ellipse cx="478.2" cy="257.1" fill="#ADD1B2" rx="6.6" ry="6.6" style="stroke:#181818;stroke-width:0.6;"/><path d="M479.8594,254.625 Q479.9531,254.4937 480.0656,254.4281 Q480.1781,254.3625 480.3094,254.3625 Q480.5344,254.3625 480.675,254.5219 Q480.8156,254.6719 480.8156,255.0375 L480.8156,255.9094 Q480.8156,256.275 480.675,256.4344 Q480.5344,256.5938 480.3094,256.5938 Q480.1031,256.5938 479.9813,256.4719 Q479.8594,256.3594 479.7938,256.05 Q479.7656,255.8344 479.6531,255.7219 Q479.4562,255.4969 479.0906,255.3656 Q478.725,255.2344 478.35,255.2344 Q477.8906,255.2344 477.5062,255.4312 Q477.1312,255.6281 476.8312,256.0781 Q476.5406,256.5281 476.5406,257.1469 L476.5406,257.8031 Q476.5406,258.5438 477.075,259.0406 Q477.6094,259.5281 478.5656,259.5281 Q479.1281,259.5281 479.5219,259.3781 Q479.7562,259.2844 480.0094,259.0219 Q480.1688,258.8625 480.2531,258.8156 Q480.3469,258.7688 480.4688,258.7688 Q480.6656,258.7688 480.8156,258.9281 Q480.975,259.0781 480.975,259.2844 Q480.975,259.4906 480.7687,259.7344 Q480.4688,260.0813 479.9906,260.2781 Q479.3438,260.55 478.5656,260.55 Q477.6563,260.55 476.9344,260.175 Q476.3438,259.875 475.9313,259.2375 Q475.5187,258.5906 475.5187,257.8219 L475.5187,257.1281 Q475.5187,256.3313 475.8844,255.6469 Q476.2594,254.9531 476.9156,254.5875 Q477.5719,254.2125 478.3125,254.2125 Q478.7531,254.2125 479.1375,254.3156 Q479.5313,254.4094 479.8594,254.625 Z " fill="#000000"/><text fill="#000000" font-family="sans-serif" font-size="8.4" lengthAdjust="spacing" textLength="61.6178" x="486.6" y="260.5781">FurnitureFactory</text><line style="stroke:#181818;stroke-width:0.3;" x1="469.8" x2="549.4178" y1="266.7" y2="266.7"/><line style="stroke:#181818;stroke-width:0.3;" x1="469.8" x2="549.4178" y1="271.5" y2="271.5"/></g><!--class Type--><g id="elem_Type"><rect codeLine="52" fill="#F1F1F1" height="62.318" id="Type" rx="1.5" ry="1.5" style="stroke:#181818;stroke-width:0.3;" width="43.1502" x="837.3" y="26.4"/><ellipse cx="848.6741" cy="36" fill="#EB937F" rx="6.6" ry="6.6" style="stroke:#181818;stroke-width:0.6;"/><path d="M847.9897,36.4781 L847.9897,37.9781 L850.5866,37.9781 L850.5866,37.425 Q850.5866,37.0594 850.7272,36.9 Q850.8772,36.7406 851.1022,36.7406 Q851.3272,36.7406 851.4679,36.9 Q851.6085,37.0594 851.6085,37.425 L851.6085,39 L846.8085,39 Q846.4335,39 846.2741,38.8594 Q846.1241,38.7188 846.1241,38.4844 Q846.1241,38.2594 846.2835,38.1188 Q846.4429,37.9781 846.8085,37.9781 L846.9679,37.9781 L846.9679,33.9844 L846.8085,33.9844 Q846.4335,33.9844 846.2741,33.8438 Q846.1241,33.7031 846.1241,33.4688 Q846.1241,33.2438 846.2741,33.1031 Q846.4335,32.9625 846.8085,32.9625 L851.3835,32.9625 L851.3835,34.5188 Q851.3835,34.8844 851.2429,35.0437 Q851.1116,35.1938 850.8772,35.1938 Q850.6522,35.1938 850.5116,35.0437 Q850.371,34.8844 850.371,34.5188 L850.371,33.9844 L847.9897,33.9844 L847.9897,35.4563 L848.8804,35.4563 Q848.8804,35.0625 848.9554,34.95 Q849.1147,34.7063 849.396,34.7063 Q849.621,34.7063 849.7616,34.8656 Q849.9022,35.0156 849.9022,35.3813 L849.9022,36.5625 Q849.9022,36.8906 849.8272,37.0031 Q849.6679,37.2375 849.396,37.2375 Q849.1147,37.2375 848.9554,36.9938 Q848.8804,36.8813 848.8804,36.4781 L847.9897,36.4781 Z " fill="#000000"/><text fill="#000000" font-family="sans-serif" font-size="8.4" lengthAdjust="spacing" textLength="18.6744" x="857.6017" y="39.4781">Type</text><line style="stroke:#181818;stroke-width:0.3;" x1="837.9" x2="879.8502" y1="45.6" y2="45.6"/><text fill="#000000" font-family="sans-serif" font-size="8.4" lengthAdjust="spacing" textLength="35.9502" x="840.9" y="57.0645">electronic</text><text fill="#000000" font-family="sans-serif" font-size="8.4" lengthAdjust="spacing" textLength="28.9529" x="840.9" y="68.2371">clothing</text><text fill="#000000" font-family="sans-serif" font-size="8.4" lengthAdjust="spacing" textLength="30.815" x="840.9" y="79.4098">furniture</text><line style="stroke:#181818;stroke-width:0.3;" x1="837.9" x2="879.8502" y1="83.918" y2="83.918"/></g><!--class IBuilder--><g id="elem_IBuilder"><rect codeLine="58" fill="#F1F1F1" height="95.8359" id="IBuilder" rx="1.5" ry="1.5" style="stroke:#181818;stroke-width:0.3;" width="118.783" x="571.5" y="213.9"/><ellipse cx="614.1009" cy="223.5" fill="#B4A7E5" rx="6.6" ry="6.6" style="stroke:#181818;stroke-width:0.6;"/><path d="M614.6728,221.4844 L614.6728,225.4781 L615.704,225.4781 Q616.0696,225.4781 616.229,225.6188 Q616.3884,225.7594 616.3884,225.9938 Q616.3884,226.2188 616.229,226.3594 Q616.0696,226.5 615.704,226.5 L612.6196,226.5 Q612.254,226.5 612.0946,226.3594 Q611.9353,226.2188 611.9353,225.9844 Q611.9353,225.7594 612.0946,225.6188 Q612.254,225.4781 612.6196,225.4781 L613.6509,225.4781 L613.6509,221.4844 L612.6196,221.4844 Q612.254,221.4844 612.0946,221.3438 Q611.9353,221.2031 611.9353,220.9688 Q611.9353,220.7438 612.0946,220.6031 Q612.254,220.4625 612.6196,220.4625 L615.704,220.4625 Q616.0696,220.4625 616.229,220.6031 Q616.3884,220.7438 616.3884,220.9688 Q616.3884,221.2031 616.229,221.3438 Q616.0696,221.4844 615.704,221.4844 L614.6728,221.4844 Z " fill="#000000"/><text fill="#000000" font-family="sans-serif" font-size="8.4" font-style="italic" lengthAdjust="spacing" textLength="28.4813" x="626.4009" y="226.9781">IBuilder</text><line style="stroke:#181818;stroke-width:0.3;" x1="572.1" x2="689.683" y1="233.1" y2="233.1"/><line style="stroke:#181818;stroke-width:0.3;" x1="572.1" x2="689.683" y1="237.9" y2="237.9"/><ellipse cx="578.1" cy="246.7863" fill="#84BE84" rx="1.8" ry="1.8" style="stroke:#038048;stroke-width:0.6;"/><text fill="#000000" font-family="sans-serif" font-size="8.4" lengthAdjust="spacing" textLength="57.4178" x="583.5" y="249.3645">SetID(String id)</text><ellipse cx="578.1" cy="257.959" fill="#84BE84" rx="1.8" ry="1.8" style="stroke:#038048;stroke-width:0.6;"/><text fill="#000000" font-family="sans-serif" font-size="8.4" lengthAdjust="spacing" textLength="85.899" x="583.5" y="260.5371">SetName(String name)</text><ellipse cx="578.1" cy="269.1316" fill="#84BE84" rx="1.8" ry="1.8" style="stroke:#038048;stroke-width:0.6;"/><text fill="#000000" font-family="sans-serif" font-size="8.4" lengthAdjust="spacing" textLength="86.3789" x="583.5" y="271.7098">SetBrand(String brand)</text><ellipse cx="578.1" cy="280.3043" fill="#84BE84" rx="1.8" ry="1.8" style="stroke:#038048;stroke-width:0.6;"/><text fill="#000000" font-family="sans-serif" font-size="8.4" lengthAdjust="spacing" textLength="79.8246" x="583.5" y="282.8824">SetPrice(String price)</text><ellipse cx="578.1" cy="291.477" fill="#84BE84" rx="1.8" ry="1.8" style="stroke:#038048;stroke-width:0.6;"/><text fill="#000000" font-family="sans-serif" font-size="8.4" lengthAdjust="spacing" textLength="79.3611" x="583.5" y="294.0551">SetDesc(String desc)</text><ellipse cx="578.1" cy="302.6496" fill="#84BE84" rx="1.8" ry="1.8" style="stroke:#038048;stroke-width:0.6;"/><text fill="#000000" font-family="sans-serif" font-size="8.4" lengthAdjust="spacing" textLength="103.183" x="583.5" y="305.2277">SetQuantity(String quantity)</text></g><!--class ClothingBuilder--><g id="elem_ClothingBuilder"><rect codeLine="67" fill="#F1F1F1" height="28.8" id="ClothingBuilder" rx="1.5" ry="1.5" style="stroke:#181818;stroke-width:0.3;" width="76.1666" x="493.8" y="412.8"/><ellipse cx="502.8" cy="422.4" fill="#ADD1B2" rx="6.6" ry="6.6" style="stroke:#181818;stroke-width:0.6;"/><path d="M504.4594,419.925 Q504.5531,419.7938 504.6656,419.7281 Q504.7781,419.6625 504.9094,419.6625 Q505.1344,419.6625 505.275,419.8219 Q505.4156,419.9719 505.4156,420.3375 L505.4156,421.2094 Q505.4156,421.575 505.275,421.7344 Q505.1344,421.8938 504.9094,421.8938 Q504.7031,421.8938 504.5812,421.7719 Q504.4594,421.6594 504.3937,421.35 Q504.3656,421.1344 504.2531,421.0219 Q504.0563,420.7969 503.6906,420.6656 Q503.325,420.5344 502.95,420.5344 Q502.4906,420.5344 502.1063,420.7313 Q501.7313,420.9281 501.4313,421.3781 Q501.1406,421.8281 501.1406,422.4469 L501.1406,423.1031 Q501.1406,423.8438 501.675,424.3406 Q502.2094,424.8281 503.1656,424.8281 Q503.7281,424.8281 504.1219,424.6781 Q504.3563,424.5844 504.6094,424.3219 Q504.7687,424.1625 504.8531,424.1156 Q504.9469,424.0687 505.0687,424.0687 Q505.2656,424.0687 505.4156,424.2281 Q505.575,424.3781 505.575,424.5844 Q505.575,424.7906 505.3688,425.0344 Q505.0687,425.3812 504.5906,425.5781 Q503.9437,425.85 503.1656,425.85 Q502.2562,425.85 501.5344,425.475 Q500.9437,425.175 500.5313,424.5375 Q500.1188,423.8906 500.1188,423.1219 L500.1188,422.4281 Q500.1188,421.6312 500.4844,420.9469 Q500.8594,420.2531 501.5156,419.8875 Q502.1719,419.5125 502.9125,419.5125 Q503.3531,419.5125 503.7375,419.6156 Q504.1312,419.7094 504.4594,419.925 Z " fill="#000000"/><text fill="#000000" font-family="sans-serif" font-size="8.4" lengthAdjust="spacing" textLength="56.9666" x="511.2" y="425.8781">ClothingBuilder</text><line style="stroke:#181818;stroke-width:0.3;" x1="494.4" x2="569.3666" y1="432" y2="432"/><line style="stroke:#181818;stroke-width:0.3;" x1="494.4" x2="569.3666" y1="436.8" y2="436.8"/></g><!--class ElectronicBuilder--><g id="elem_ElectronicBuilder"><rect codeLine="68" fill="#F1F1F1" height="28.8" id="ElectronicBuilder" rx="1.5" ry="1.5" style="stroke:#181818;stroke-width:0.3;" width="82.2287" x="691.8" y="412.8"/><ellipse cx="700.8" cy="422.4" fill="#ADD1B2" rx="6.6" ry="6.6" style="stroke:#181818;stroke-width:0.6;"/><path d="M702.4594,419.925 Q702.5531,419.7938 702.6656,419.7281 Q702.7781,419.6625 702.9094,419.6625 Q703.1344,419.6625 703.275,419.8219 Q703.4156,419.9719 703.4156,420.3375 L703.4156,421.2094 Q703.4156,421.575 703.275,421.7344 Q703.1344,421.8938 702.9094,421.8938 Q702.7031,421.8938 702.5813,421.7719 Q702.4594,421.6594 702.3938,421.35 Q702.3656,421.1344 702.2531,421.0219 Q702.0563,420.7969 701.6906,420.6656 Q701.325,420.5344 700.95,420.5344 Q700.4906,420.5344 700.1062,420.7313 Q699.7312,420.9281 699.4313,421.3781 Q699.1406,421.8281 699.1406,422.4469 L699.1406,423.1031 Q699.1406,423.8438 699.675,424.3406 Q700.2094,424.8281 701.1656,424.8281 Q701.7281,424.8281 702.1219,424.6781 Q702.3562,424.5844 702.6094,424.3219 Q702.7688,424.1625 702.8531,424.1156 Q702.9469,424.0687 703.0688,424.0687 Q703.2656,424.0687 703.4156,424.2281 Q703.575,424.3781 703.575,424.5844 Q703.575,424.7906 703.3688,425.0344 Q703.0688,425.3812 702.5906,425.5781 Q701.9438,425.85 701.1656,425.85 Q700.2563,425.85 699.5344,425.475 Q698.9438,425.175 698.5313,424.5375 Q698.1188,423.8906 698.1188,423.1219 L698.1188,422.4281 Q698.1188,421.6312 698.4844,420.9469 Q698.8594,420.2531 699.5156,419.8875 Q700.1719,419.5125 700.9125,419.5125 Q701.3531,419.5125 701.7375,419.6156 Q702.1313,419.7094 702.4594,419.925 Z " fill="#000000"/><text fill="#000000" font-family="sans-serif" font-size="8.4" lengthAdjust="spacing" textLength="63.0287" x="709.2" y="425.8781">ElectronicBuilder</text><line style="stroke:#181818;stroke-width:0.3;" x1="692.4" x2="773.4287" y1="432" y2="432"/><line style="stroke:#181818;stroke-width:0.3;" x1="692.4" x2="773.4287" y1="436.8" y2="436.8"/></g><!--class FurnitureBuilder--><g id="elem_FurnitureBuilder"><rect codeLine="69" fill="#F1F1F1" height="28.8" id="FurnitureBuilder" rx="1.5" ry="1.5" style="stroke:#181818;stroke-width:0.3;" width="78.9598" x="591.3" y="412.8"/><ellipse cx="600.3" cy="422.4" fill="#ADD1B2" rx="6.6" ry="6.6" style="stroke:#181818;stroke-width:0.6;"/><path d="M601.9594,419.925 Q602.0531,419.7938 602.1656,419.7281 Q602.2781,419.6625 602.4094,419.6625 Q602.6344,419.6625 602.775,419.8219 Q602.9156,419.9719 602.9156,420.3375 L602.9156,421.2094 Q602.9156,421.575 602.775,421.7344 Q602.6344,421.8938 602.4094,421.8938 Q602.2031,421.8938 602.0813,421.7719 Q601.9594,421.6594 601.8938,421.35 Q601.8656,421.1344 601.7531,421.0219 Q601.5563,420.7969 601.1906,420.6656 Q600.825,420.5344 600.45,420.5344 Q599.9906,420.5344 599.6062,420.7313 Q599.2312,420.9281 598.9313,421.3781 Q598.6406,421.8281 598.6406,422.4469 L598.6406,423.1031 Q598.6406,423.8438 599.175,424.3406 Q599.7094,424.8281 600.6656,424.8281 Q601.2281,424.8281 601.6219,424.6781 Q601.8562,424.5844 602.1094,424.3219 Q602.2688,424.1625 602.3531,424.1156 Q602.4469,424.0687 602.5688,424.0687 Q602.7656,424.0687 602.9156,424.2281 Q603.075,424.3781 603.075,424.5844 Q603.075,424.7906 602.8688,425.0344 Q602.5688,425.3812 602.0906,425.5781 Q601.4438,425.85 600.6656,425.85 Q599.7563,425.85 599.0344,425.475 Q598.4438,425.175 598.0313,424.5375 Q597.6188,423.8906 597.6188,423.1219 L597.6188,422.4281 Q597.6188,421.6312 597.9844,420.9469 Q598.3594,420.2531 599.0156,419.8875 Q599.6719,419.5125 600.4125,419.5125 Q600.8531,419.5125 601.2375,419.6156 Q601.6313,419.7094 601.9594,419.925 Z " fill="#000000"/><text fill="#000000" font-family="sans-serif" font-size="8.4" lengthAdjust="spacing" textLength="59.7598" x="608.7" y="425.8781">FurnitureBuilder</text><line style="stroke:#181818;stroke-width:0.3;" x1="591.9" x2="669.6598" y1="432" y2="432"/><line style="stroke:#181818;stroke-width:0.3;" x1="591.9" x2="669.6598" y1="436.8" y2="436.8"/></g><!--class Engineer--><g id="elem_Engineer"><rect codeLine="71" fill="#F1F1F1" height="62.318" id="Engineer" rx="1.5" ry="1.5" style="stroke:#181818;stroke-width:0.3;" width="113.6479" x="702.6" y="26.4"/><ellipse cx="740.0616" cy="36" fill="#ADD1B2" rx="6.6" ry="6.6" style="stroke:#181818;stroke-width:0.6;"/><path d="M741.721,33.525 Q741.8147,33.3938 741.9272,33.3281 Q742.0397,33.2625 742.171,33.2625 Q742.396,33.2625 742.5366,33.4219 Q742.6772,33.5719 742.6772,33.9375 L742.6772,34.8094 Q742.6772,35.175 742.5366,35.3344 Q742.396,35.4938 742.171,35.4938 Q741.9647,35.4938 741.8429,35.3719 Q741.721,35.2594 741.6554,34.95 Q741.6272,34.7344 741.5147,34.6219 Q741.3179,34.3969 740.9522,34.2656 Q740.5866,34.1344 740.2116,34.1344 Q739.7522,34.1344 739.3679,34.3313 Q738.9929,34.5281 738.6929,34.9781 Q738.4022,35.4281 738.4022,36.0469 L738.4022,36.7031 Q738.4022,37.4438 738.9366,37.9406 Q739.471,38.4281 740.4272,38.4281 Q740.9897,38.4281 741.3835,38.2781 Q741.6179,38.1844 741.871,37.9219 Q742.0304,37.7625 742.1147,37.7156 Q742.2085,37.6687 742.3304,37.6687 Q742.5272,37.6687 742.6772,37.8281 Q742.8366,37.9781 742.8366,38.1844 Q742.8366,38.3906 742.6304,38.6344 Q742.3304,38.9812 741.8522,39.1781 Q741.2054,39.45 740.4272,39.45 Q739.5179,39.45 738.796,39.075 Q738.2054,38.775 737.7929,38.1375 Q737.3804,37.4906 737.3804,36.7219 L737.3804,36.0281 Q737.3804,35.2312 737.746,34.5469 Q738.121,33.8531 738.7772,33.4875 Q739.4335,33.1125 740.1741,33.1125 Q740.6147,33.1125 740.9991,33.2156 Q741.3929,33.3094 741.721,33.525 Z " fill="#000000"/><text fill="#000000" font-family="sans-serif" font-size="8.4" lengthAdjust="spacing" textLength="33.6246" x="752.3616" y="39.4781">Engineer</text><line style="stroke:#181818;stroke-width:0.3;" x1="703.2" x2="815.6479" y1="45.6" y2="45.6"/><rect fill="none" height="3.6" style="stroke:#C82930;stroke-width:0.6;" width="3.6" x="707.4" y="52.6863"/><text fill="#000000" font-family="sans-serif" font-size="8.4" lengthAdjust="spacing" textLength="58.8287" x="714.6" y="57.0645">IBuilder iBuilder</text><line style="stroke:#181818;stroke-width:0.3;" x1="703.2" x2="815.6479" y1="61.5727" y2="61.5727"/><ellipse cx="709.2" cy="70.459" fill="#84BE84" rx="1.8" ry="1.8" style="stroke:#038048;stroke-width:0.6;"/><text fill="#000000" font-family="sans-serif" font-size="8.4" lengthAdjust="spacing" textLength="98.0479" x="714.6" y="73.0371">Engineer(IBuilder iBuilder)</text><ellipse cx="709.2" cy="81.6316" fill="#84BE84" rx="1.8" ry="1.8" style="stroke:#038048;stroke-width:0.6;"/><text fill="#000000" font-family="sans-serif" font-size="8.4" lengthAdjust="spacing" textLength="79.3488" x="714.6" y="84.2098">BuildItem(Items item)</text></g><!--class Items--><g id="elem_Items"><rect codeLine="77" fill="#F1F1F1" height="229.9078" id="Items" rx="1.5" ry="1.5" style="stroke:#181818;stroke-width:0.3;" width="117.3803" x="816.3" y="147"/><ellipse cx="862.1719" cy="156.6" fill="#ADD1B2" rx="6.6" ry="6.6" style="stroke:#181818;stroke-width:0.6;"/><path d="M863.8313,154.125 Q863.925,153.9938 864.0375,153.9281 Q864.15,153.8625 864.2813,153.8625 Q864.5063,153.8625 864.6469,154.0219 Q864.7875,154.1719 864.7875,154.5375 L864.7875,155.4094 Q864.7875,155.775 864.6469,155.9344 Q864.5063,156.0938 864.2813,156.0938 Q864.075,156.0938 863.9531,155.9719 Q863.8313,155.8594 863.7656,155.55 Q863.7375,155.3344 863.625,155.2219 Q863.4281,154.9969 863.0625,154.8656 Q862.6969,154.7344 862.3219,154.7344 Q861.8625,154.7344 861.4781,154.9313 Q861.1031,155.1281 860.8031,155.5781 Q860.5125,156.0281 860.5125,156.6469 L860.5125,157.3031 Q860.5125,158.0438 861.0469,158.5406 Q861.5813,159.0281 862.5375,159.0281 Q863.1,159.0281 863.4938,158.8781 Q863.7281,158.7844 863.9812,158.5219 Q864.1406,158.3625 864.225,158.3156 Q864.3188,158.2687 864.4406,158.2687 Q864.6375,158.2687 864.7875,158.4281 Q864.9469,158.5781 864.9469,158.7844 Q864.9469,158.9906 864.7406,159.2344 Q864.4406,159.5812 863.9625,159.7781 Q863.3156,160.05 862.5375,160.05 Q861.6281,160.05 860.9063,159.675 Q860.3156,159.375 859.9031,158.7375 Q859.4906,158.0906 859.4906,157.3219 L859.4906,156.6281 Q859.4906,155.8312 859.8562,155.1469 Q860.2312,154.4531 860.8875,154.0875 Q861.5437,153.7125 862.2844,153.7125 Q862.725,153.7125 863.1094,153.8156 Q863.5031,153.9094 863.8313,154.125 Z " fill="#000000"/><text fill="#000000" font-family="sans-serif" font-size="8.4" lengthAdjust="spacing" textLength="20.5365" x="874.4719" y="160.0781">Items</text><line style="stroke:#181818;stroke-width:0.3;" x1="816.9" x2="933.0803" y1="166.2" y2="166.2"/><rect fill="none" height="3.6" style="stroke:#C82930;stroke-width:0.6;" width="3.6" x="821.1" y="173.2863"/><text fill="#000000" font-family="sans-serif" font-size="8.4" lengthAdjust="spacing" textLength="30.815" x="828.3" y="177.6645">String id</text><rect fill="none" height="3.6" style="stroke:#C82930;stroke-width:0.6;" width="3.6" x="821.1" y="184.459"/><text fill="#000000" font-family="sans-serif" font-size="8.4" lengthAdjust="spacing" textLength="45.2895" x="828.3" y="188.8371">String name</text><rect fill="none" height="3.6" style="stroke:#C82930;stroke-width:0.6;" width="3.6" x="821.1" y="195.6316"/><text fill="#000000" font-family="sans-serif" font-size="8.4" lengthAdjust="spacing" textLength="45.7611" x="828.3" y="200.0098">String brand</text><rect fill="none" height="3.6" style="stroke:#C82930;stroke-width:0.6;" width="3.6" x="821.1" y="206.8043"/><text fill="#000000" font-family="sans-serif" font-size="8.4" lengthAdjust="spacing" textLength="42.484" x="828.3" y="211.1824">String price</text><rect fill="none" height="3.6" style="stroke:#C82930;stroke-width:0.6;" width="3.6" x="821.1" y="217.977"/><text fill="#000000" font-family="sans-serif" font-size="8.4" lengthAdjust="spacing" textLength="42.0205" x="828.3" y="222.3551">String desc</text><rect fill="none" height="3.6" style="stroke:#C82930;stroke-width:0.6;" width="3.6" x="821.1" y="229.1496"/><text fill="#000000" font-family="sans-serif" font-size="8.4" lengthAdjust="spacing" textLength="53.6977" x="828.3" y="233.5277">String quantity</text><line style="stroke:#181818;stroke-width:0.3;" x1="816.9" x2="933.0803" y1="238.0359" y2="238.0359"/><ellipse cx="822.9" cy="246.9223" fill="#84BE84" rx="1.8" ry="1.8" style="stroke:#038048;stroke-width:0.6;"/><text fill="#000000" font-family="sans-serif" font-size="8.4" lengthAdjust="spacing" textLength="24.2771" x="828.3" y="249.5004">getId()</text><ellipse cx="822.9" cy="258.0949" fill="#84BE84" rx="1.8" ry="1.8" style="stroke:#038048;stroke-width:0.6;"/><text fill="#000000" font-family="sans-serif" font-size="8.4" lengthAdjust="spacing" textLength="54.6205" x="828.3" y="260.673">setId(String id)</text><ellipse cx="822.9" cy="269.2676" fill="#84BE84" rx="1.8" ry="1.8" style="stroke:#038048;stroke-width:0.6;"/><text fill="#000000" font-family="sans-serif" font-size="8.4" lengthAdjust="spacing" textLength="39.6785" x="828.3" y="271.8457">getName()</text><ellipse cx="822.9" cy="280.4402" fill="#84BE84" rx="1.8" ry="1.8" style="stroke:#038048;stroke-width:0.6;"/><text fill="#000000" font-family="sans-serif" font-size="8.4" lengthAdjust="spacing" textLength="84.4963" x="828.3" y="283.0184">setName(String name)</text><ellipse cx="822.9" cy="291.6129" fill="#84BE84" rx="1.8" ry="1.8" style="stroke:#038048;stroke-width:0.6;"/><text fill="#000000" font-family="sans-serif" font-size="8.4" lengthAdjust="spacing" textLength="39.6867" x="828.3" y="294.191">getBrand()</text><ellipse cx="822.9" cy="302.7855" fill="#84BE84" rx="1.8" ry="1.8" style="stroke:#038048;stroke-width:0.6;"/><text fill="#000000" font-family="sans-serif" font-size="8.4" lengthAdjust="spacing" textLength="84.9762" x="828.3" y="305.3637">setBrand(String brand)</text><ellipse cx="822.9" cy="313.9582" fill="#84BE84" rx="1.8" ry="1.8" style="stroke:#038048;stroke-width:0.6;"/><text fill="#000000" font-family="sans-serif" font-size="8.4" lengthAdjust="spacing" textLength="36.4096" x="828.3" y="316.5363">getPrice()</text><ellipse cx="822.9" cy="325.1309" fill="#84BE84" rx="1.8" ry="1.8" style="stroke:#038048;stroke-width:0.6;"/><text fill="#000000" font-family="sans-serif" font-size="8.4" lengthAdjust="spacing" textLength="78.4219" x="828.3" y="327.709">setPrice(String price)</text><ellipse cx="822.9" cy="336.3035" fill="#84BE84" rx="1.8" ry="1.8" style="stroke:#038048;stroke-width:0.6;"/><text fill="#000000" font-family="sans-serif" font-size="8.4" lengthAdjust="spacing" textLength="36.4096" x="828.3" y="338.8816">getDesc()</text><ellipse cx="822.9" cy="347.4762" fill="#84BE84" rx="1.8" ry="1.8" style="stroke:#038048;stroke-width:0.6;"/><text fill="#000000" font-family="sans-serif" font-size="8.4" lengthAdjust="spacing" textLength="77.9584" x="828.3" y="350.0543">setDesc(String desc)</text><ellipse cx="822.9" cy="358.6488" fill="#84BE84" rx="1.8" ry="1.8" style="stroke:#038048;stroke-width:0.6;"/><text fill="#000000" font-family="sans-serif" font-size="8.4" lengthAdjust="spacing" textLength="48.5543" x="828.3" y="361.227">getQuantity()</text><ellipse cx="822.9" cy="369.8215" fill="#84BE84" rx="1.8" ry="1.8" style="stroke:#038048;stroke-width:0.6;"/><text fill="#000000" font-family="sans-serif" font-size="8.4" lengthAdjust="spacing" textLength="101.7803" x="828.3" y="372.3996">setQuantity(String quantity)</text></g><!--class FirebaseAuth--><g id="elem_FirebaseAuth"><rect fill="#F1F1F1" height="28.8" id="FirebaseAuth" rx="1.5" ry="1.5" style="stroke:#181818;stroke-width:0.3;" width="69.1611" x="4.2" y="412.8"/><ellipse cx="13.2" cy="422.4" fill="#ADD1B2" rx="6.6" ry="6.6" style="stroke:#181818;stroke-width:0.6;"/><path d="M14.8594,419.925 Q14.9531,419.7938 15.0656,419.7281 Q15.1781,419.6625 15.3094,419.6625 Q15.5344,419.6625 15.675,419.8219 Q15.8156,419.9719 15.8156,420.3375 L15.8156,421.2094 Q15.8156,421.575 15.675,421.7344 Q15.5344,421.8938 15.3094,421.8938 Q15.1031,421.8938 14.9813,421.7719 Q14.8594,421.6594 14.7938,421.35 Q14.7656,421.1344 14.6531,421.0219 Q14.4562,420.7969 14.0906,420.6656 Q13.725,420.5344 13.35,420.5344 Q12.8906,420.5344 12.5063,420.7313 Q12.1313,420.9281 11.8312,421.3781 Q11.5406,421.8281 11.5406,422.4469 L11.5406,423.1031 Q11.5406,423.8438 12.075,424.3406 Q12.6094,424.8281 13.5656,424.8281 Q14.1281,424.8281 14.5219,424.6781 Q14.7563,424.5844 15.0094,424.3219 Q15.1688,424.1625 15.2531,424.1156 Q15.3469,424.0687 15.4688,424.0687 Q15.6656,424.0687 15.8156,424.2281 Q15.975,424.3781 15.975,424.5844 Q15.975,424.7906 15.7687,425.0344 Q15.4688,425.3812 14.9906,425.5781 Q14.3438,425.85 13.5656,425.85 Q12.6563,425.85 11.9344,425.475 Q11.3438,425.175 10.9313,424.5375 Q10.5187,423.8906 10.5187,423.1219 L10.5187,422.4281 Q10.5187,421.6312 10.8844,420.9469 Q11.2594,420.2531 11.9156,419.8875 Q12.5719,419.5125 13.3125,419.5125 Q13.7531,419.5125 14.1375,419.6156 Q14.5313,419.7094 14.8594,419.925 Z " fill="#000000"/><text fill="#000000" font-family="sans-serif" font-size="8.4" lengthAdjust="spacing" textLength="49.9611" x="21.6" y="425.8781">FirebaseAuth</text><line style="stroke:#181818;stroke-width:0.3;" x1="4.8" x2="72.7611" y1="432" y2="432"/><line style="stroke:#181818;stroke-width:0.3;" x1="4.8" x2="72.7611" y1="436.8" y2="436.8"/></g><!--class FirebaseFirestore--><g id="elem_FirebaseFirestore"><rect fill="#F1F1F1" height="28.8" id="FirebaseFirestore" rx="1.5" ry="1.5" style="stroke:#181818;stroke-width:0.3;" width="85.0219" x="94.5" y="412.8"/><ellipse cx="103.5" cy="422.4" fill="#ADD1B2" rx="6.6" ry="6.6" style="stroke:#181818;stroke-width:0.6;"/><path d="M105.1594,419.925 Q105.2531,419.7938 105.3656,419.7281 Q105.4781,419.6625 105.6094,419.6625 Q105.8344,419.6625 105.975,419.8219 Q106.1156,419.9719 106.1156,420.3375 L106.1156,421.2094 Q106.1156,421.575 105.975,421.7344 Q105.8344,421.8938 105.6094,421.8938 Q105.4031,421.8938 105.2813,421.7719 Q105.1594,421.6594 105.0938,421.35 Q105.0656,421.1344 104.9531,421.0219 Q104.7563,420.7969 104.3906,420.6656 Q104.025,420.5344 103.65,420.5344 Q103.1906,420.5344 102.8062,420.7313 Q102.4312,420.9281 102.1313,421.3781 Q101.8406,421.8281 101.8406,422.4469 L101.8406,423.1031 Q101.8406,423.8438 102.375,424.3406 Q102.9094,424.8281 103.8656,424.8281 Q104.4281,424.8281 104.8219,424.6781 Q105.0562,424.5844 105.3094,424.3219 Q105.4688,424.1625 105.5531,424.1156 Q105.6469,424.0687 105.7688,424.0687 Q105.9656,424.0687 106.1156,424.2281 Q106.275,424.3781 106.275,424.5844 Q106.275,424.7906 106.0688,425.0344 Q105.7688,425.3812 105.2906,425.5781 Q104.6438,425.85 103.8656,425.85 Q102.9563,425.85 102.2344,425.475 Q101.6438,425.175 101.2313,424.5375 Q100.8188,423.8906 100.8188,423.1219 L100.8188,422.4281 Q100.8188,421.6312 101.1844,420.9469 Q101.5594,420.2531 102.2156,419.8875 Q102.8719,419.5125 103.6125,419.5125 Q104.0531,419.5125 104.4375,419.6156 Q104.8313,419.7094 105.1594,419.925 Z " fill="#000000"/><text fill="#000000" font-family="sans-serif" font-size="8.4" lengthAdjust="spacing" textLength="65.8219" x="111.9" y="425.8781">FirebaseFirestore</text><line style="stroke:#181818;stroke-width:0.3;" x1="95.1" x2="178.9219" y1="432" y2="432"/><line style="stroke:#181818;stroke-width:0.3;" x1="95.1" x2="178.9219" y1="436.8" y2="436.8"/></g><!--reverse link AbstractFactory to ClothingFactory--><g id="link_AbstractFactory_ClothingFactory"><path d="M475.9018,97.9778 C464.7178,114.8618 458.406,127.308 448.5,147 C430.698,182.388 412.902,225.588 407.922,247.35 " fill="none" id="AbstractFactory-backto-ClothingFactory" style="stroke:#181818;stroke-width:0.6;"/><polygon fill="none" points="481.866,88.974,472.9006,95.9898,478.9031,99.9659,481.866,88.974" style="stroke:#181818;stroke-width:0.6;"/></g><!--reverse link AbstractFactory to ClothingFactory--><g id="link_AbstractFactory_ClothingFactory"><path codeLine="103" d="M495.4881,98.5521 C486.6921,115.4361 479.406,127.308 469.5,147 C451.698,182.388 433.902,225.588 421.254,247.35 " fill="none" id="AbstractFactory-backto-ClothingFactory-1" style="stroke:#181818;stroke-width:0.6;"/><polygon fill="none" points="500.478,88.974,492.2954,96.8889,498.6808,100.2154,500.478,88.974" style="stroke:#181818;stroke-width:0.6;"/></g><!--reverse link AbstractFactory to ElectronicFactory--><g id="link_AbstractFactory_ElectronicFactory"><path d="M575.8547,79.2957 C614.8847,93.0417 655.602,112.2 690.3,147 C719.238,176.022 734.112,223.848 744.006,247.362 " fill="none" id="AbstractFactory-backto-ElectronicFactory" style="stroke:#181818;stroke-width:0.6;"/><polygon fill="none" points="565.668,75.708,574.6588,82.6912,577.0506,75.9001,565.668,75.708" style="stroke:#181818;stroke-width:0.6;"/></g><!--reverse link AbstractFactory to ElectronicFactory--><g id="link_AbstractFactory_ElectronicFactory"><path codeLine="104" d="M575.906,73.1335 C620.582,85.9375 671.442,107.028 711.3,147 C740.238,176.022 755.112,223.848 756.756,247.362 " fill="none" id="AbstractFactory-backto-ElectronicFactory-1" style="stroke:#181818;stroke-width:0.6;"/><polygon fill="none" points="565.524,70.158,574.9142,76.5941,576.8979,69.6728,565.524,70.158" style="stroke:#181818;stroke-width:0.6;"/></g><!--reverse link AbstractFactory to FurnitureFactory--><g id="link_AbstractFactory_FurnitureFactory"><path d="M503.291,99.5983 C500.195,144.3703 501.462,215.1 505.602,247.494 " fill="none" id="AbstractFactory-backto-FurnitureFactory" style="stroke:#181818;stroke-width:0.6;"/><polygon fill="none" points="504.036,88.824,499.6995,99.3499,506.8824,99.8466,504.036,88.824" style="stroke:#181818;stroke-width:0.6;"/></g><!--reverse link AbstractFactory to FurnitureFactory--><g id="link_AbstractFactory_FurnitureFactory"><path codeLine="105" d="M516.4836,99.5951 C519.7656,144.3671 518.424,215.1 514.038,247.494 " fill="none" id="AbstractFactory-backto-FurnitureFactory-1" style="stroke:#181818;stroke-width:0.6;"/><polygon fill="none" points="515.694,88.824,512.8932,99.8583,520.0739,99.3319,515.694,88.824" style="stroke:#181818;stroke-width:0.6;"/></g><!--reverse link IBuilder to ClothingBuilder--><g id="link_IBuilder_ClothingBuilder"><path d="M589.4164,319.0524 C566.9164,354.0744 546.252,390.3 535.77,412.746 " fill="none" id="IBuilder-backto-ClothingBuilder" style="stroke:#181818;stroke-width:0.6;stroke-dasharray:7.0,7.0;"/><polygon fill="none" points="595.254,309.966,586.3876,317.1065,592.4452,320.9983,595.254,309.966" style="stroke:#181818;stroke-width:0.6;"/></g><!--reverse link IBuilder to ClothingBuilder--><g id="link_IBuilder_ClothingBuilder"><path codeLine="109" d="M604.4005,319.382 C584.7265,354.404 561.786,390.3 545.016,412.746 " fill="none" id="IBuilder-backto-ClothingBuilder-1" style="stroke:#181818;stroke-width:0.6;stroke-dasharray:7.0,7.0;"/><polygon fill="none" points="609.69,309.966,601.2618,317.6188,607.5391,321.1452,609.69,309.966" style="stroke:#181818;stroke-width:0.6;"/></g><!--reverse link IBuilder to ElectronicBuilder--><g id="link_IBuilder_ElectronicBuilder"><path d="M655.3109,319.3688 C666.9629,339.9908 676.56,354.978 690.3,376.8 C697.992,389.022 706.962,402.768 715.176,412.716 " fill="none" id="IBuilder-backto-ElectronicBuilder" style="stroke:#181818;stroke-width:0.6;stroke-dasharray:7.0,7.0;"/><polygon fill="none" points="649.998,309.966,652.1766,321.1398,658.4451,317.5979,649.998,309.966" style="stroke:#181818;stroke-width:0.6;"/></g><!--reverse link IBuilder to ElectronicBuilder--><g id="link_IBuilder_ElectronicBuilder"><path codeLine="110" d="M675.1608,319.0297 C688.5228,339.6517 697.56,354.978 711.3,376.8 C718.992,389.022 727.962,402.768 732.744,412.716 " fill="none" id="IBuilder-backto-ElectronicBuilder-1" style="stroke:#181818;stroke-width:0.6;stroke-dasharray:7.0,7.0;"/><polygon fill="none" points="669.288,309.966,672.1396,320.9873,678.182,317.0721,669.288,309.966" style="stroke:#181818;stroke-width:0.6;"/></g><!--reverse link IBuilder to FurnitureBuilder--><g id="link_IBuilder_FurnitureBuilder"><path d="M623.4686,320.7577 C622.0946,355.7797 623.358,390.3 626.406,412.746 " fill="none" id="IBuilder-backto-FurnitureBuilder" style="stroke:#181818;stroke-width:0.6;stroke-dasharray:7.0,7.0;"/><polygon fill="none" points="623.892,309.966,619.8714,320.6166,627.0658,320.8988,623.892,309.966" style="stroke:#181818;stroke-width:0.6;"/></g><!--reverse link IBuilder to FurnitureBuilder--><g id="link_IBuilder_FurnitureBuilder"><path codeLine="111" d="M638.7712,320.7567 C640.2292,355.7787 638.886,390.3 635.658,412.746 " fill="none" id="IBuilder-backto-FurnitureBuilder-1" style="stroke:#181818;stroke-width:0.6;stroke-dasharray:7.0,7.0;"/><polygon fill="none" points="638.322,309.966,635.1743,320.9064,642.3681,320.6069,638.322,309.966" style="stroke:#181818;stroke-width:0.6;"/></g><!--link SignUp to FirebaseManager--><g id="link_SignUp_FirebaseManager"><path codeLine="98" d="M204.102,111.186 C192.204,122.586 180.12,134.868 169.5,147 C152.796,166.08 138.2521,185.5621 124.4281,205.4881 " fill="none" id="SignUp-to-FirebaseManager" style="stroke:#181818;stroke-width:0.6;"/><polygon fill="#181818" points="122.376,208.446,127.426,205.3772,124.0861,205.9811,123.4822,202.6411,122.376,208.446" style="stroke:#181818;stroke-width:0.6;"/></g><!--reverse link SignUp to User--><g id="link_SignUp_User"><path codeLine="99" d="M264.3,118.23 C264.3,144.498 264.3,169.272 264.3,196.956 " fill="none" id="SignUp-backto-User" style="stroke:#181818;stroke-width:0.6;"/><polygon fill="#181818" points="264.3,111.03,261.9,114.63,264.3,118.23,266.7,114.63,264.3,111.03" style="stroke:#181818;stroke-width:0.6;"/></g><!--link LogIn to FirebaseManager--><g id="link_LogIn_FirebaseManager"><path codeLine="100" d="M85.926,94.278 C86.298,125.964 86.8073,168.8823 87.2333,204.7863 " fill="none" id="LogIn-to-FirebaseManager" style="stroke:#181818;stroke-width:0.6;"/><polygon fill="#181818" points="87.276,208.386,89.6118,202.9579,87.2404,205.3862,84.8121,203.0149,87.276,208.386" style="stroke:#181818;stroke-width:0.6;"/></g><!--reverse link FirebaseManager to FirebaseAuth--><g id="link_FirebaseManager_FirebaseAuth"><path codeLine="101" d="M69.9924,322.2207 C59.7684,356.3247 49.29,391.284 42.888,412.632 " fill="none" id="FirebaseManager-backto-FirebaseAuth" style="stroke:#181818;stroke-width:0.6;"/><polygon fill="#181818" points="72.06,315.324,68.7273,318.0832,69.9924,322.2207,73.3251,319.4616,72.06,315.324" style="stroke:#181818;stroke-width:0.6;"/></g><!--reverse link FirebaseManager to FirebaseFirestore--><g id="link_FirebaseManager_FirebaseFirestore"><path codeLine="102" d="M105.8076,322.2207 C116.0316,356.3247 126.51,391.284 132.912,412.632 " fill="none" id="FirebaseManager-backto-FirebaseFirestore" style="stroke:#181818;stroke-width:0.6;"/><polygon fill="#181818" points="103.74,315.324,102.4749,319.4616,105.8076,322.2207,107.0727,318.0832,103.74,315.324" style="stroke:#181818;stroke-width:0.6;"/></g><!--link ClothingFactory to ClothingBuilder--><g id="link_ClothingFactory_ClothingBuilder"><path codeLine="106" d="M412.224,276.324 C418.278,299.262 432.936,345.72 458.7,376.8 C471.108,391.77 486.0042,402.3131 501.0582,410.9591 " fill="none" id="ClothingFactory-to-ClothingBuilder" style="stroke:#181818;stroke-width:0.6;"/><polygon fill="#181818" points="504.18,412.752,500.6926,407.9814,501.5785,411.2579,498.3021,412.1438,504.18,412.752" style="stroke:#181818;stroke-width:0.6;"/></g><!--link ElectronicFactory to ElectronicBuilder--><g id="link_ElectronicFactory_ElectronicBuilder"><path codeLine="107" d="M751.56,276.492 C747.708,307.494 738.9303,378.0995 735.0783,409.0715 " fill="none" id="ElectronicFactory-to-ElectronicBuilder" style="stroke:#181818;stroke-width:0.6;"/><polygon fill="#181818" points="734.634,412.644,737.6821,407.5815,735.0043,409.6669,732.9188,406.9891,734.634,412.644" style="stroke:#181818;stroke-width:0.6;"/></g><!--link FurnitureFactory to FurnitureBuilder--><g id="link_FurnitureFactory_FurnitureBuilder"><path codeLine="108" d="M513.306,276.456 C519.762,299.37 535.074,345.546 560.7,376.8 C572.826,391.59 587.293,402.1813 601.813,410.9353 " fill="none" id="FurnitureFactory-to-FurnitureBuilder" style="stroke:#181818;stroke-width:0.6;"/><polygon fill="#181818" points="604.896,412.794,601.5106,407.9505,602.3268,411.2451,599.0323,412.0612,604.896,412.794" style="stroke:#181818;stroke-width:0.6;"/></g><!--link Engineer to IBuilder--><g id="link_Engineer_IBuilder"><path codeLine="112" d="M738.6,88.836 C727.2,105.864 712.89,127.488 700.5,147 C686.67,168.768 673.6091,190.0644 661.1471,210.6984 " fill="none" id="Engineer-to-IBuilder" style="stroke:#181818;stroke-width:0.6;"/><polygon fill="#181818" points="659.286,213.78,664.1321,210.3984,660.8369,211.212,660.0233,207.9169,659.286,213.78" style="stroke:#181818;stroke-width:0.6;"/></g><!--link Engineer to Items--><g id="link_Engineer_Items"><path codeLine="113" d="M776.76,88.824 C787.44,107.556 799.9965,129.5808 814.4265,154.8828 " fill="none" id="Engineer-to-Items" style="stroke:#181818;stroke-width:0.6;"/><polygon fill="#181818" points="816.21,158.01,815.6196,152.1303,814.7238,155.404,811.45,154.5082,816.21,158.01" style="stroke:#181818;stroke-width:0.6;"/></g><!--SRC=[fLLVRzem47_Ff_3RO2tmNbMJIYaIKZTjOdm0anp6Md9XjhEDqNttsObj79lGIaKYoTtzVF_l_66lr47UpMQ7ag9ggdAQrzKiBwcKau9J9cYLPIr9rfpXva1E6T6_2Lbo0LiguQ5HUrAPPoGmRwbg0QJOMj56WY08lyqxGd-cI9cMLiXQoGsfyL40LJ2QDrYKG2Jz1SKAfQAOmrffoTZgw3oRAnmvpdFDLlZCyOVc_7C1jCot-_z-ZqBZiLRdXZwiU9w8kTLgKJkEj1nskI- -aFX8lStJZRCkZvZlHOtyBnI4WN8nUPpc6NCXlTY6uRMLFVNSMIl1aH5Uk9nqTAEHI2leSw6YlBJAZQwHFtth8ERGRGyVUFDaw7DOZZ60NXLX91lhKNZSyoAlsv3fLYf1SqMws1yikTJ_MXnj6cx8jk5byLZMQgyrZCRaZgpcXcLxtmAUIiYLoNq-25as0hbg1FGHFldEXdC0_YZ08d7Ceiy6tuRtrb-3Pu1DHRuV3s1J0DvII-RMpPROEQqc38uAn8xcu8FpILphQYtEtJ0-ixy4vUbAuqLpGR5migqX0k5NmND_y628GBW0cJjPeRy3qRT6RqYkZaxyqzBZj10k25uTIgW0bJnNBIx2wrXVW6jGfnSPHmXcqIUKznlB0KS9m8NSaYi5rSWy9E7w6SJQCK_zCOw7FHtqjXfzLbk3FikaliznsRuunBAbaYPXjaa2s53JCDSq0NQuYvZheW0zt5RCjbK07cep5hHP0B_QUlPUdam-nMlUYJvEkgitwsx0IyZu_Z57mklcAi1VE5cy2kzVD2nQJvT1oLQw38kNKHRlFXDSD8PPkl4CAXd1BDbqRQQYwSlymDo_JAU9hRuqjT6N9yhz_1hJgyjSCtXPzXy0]--></g></svg>