<svg xmlns="http://www.w3.org/2000/svg" xmlns:xlink="http://www.w3.org/1999/xlink" contentStyleType="text/css" height="445.8px" preserveAspectRatio="none" style="width:937px;height:445px;background:#FFFFFF;" version="1.1" viewBox="0 0 937 445" width="937.8px" zoomAndPan="magnify"><defs/><g><!--class SignUp--><g id="elem_SignUp"><rect codeLine="3" fill="#F1F1F1" height="107.0086" id="SignUp" rx="1.5" ry="1.5" style="stroke:#181818;stroke-width:0.3;" width="158.0227" x="185.4" y="4.2"/><ellipse cx="248.0862" cy="13.8" fill="#ADD1B2" rx="6.6" ry="6.6" style="stroke:#181818;stroke-width:0.6;"/><path d="M249.7456,11.325 Q249.8394,11.1938 249.9519,11.1281 Q250.0644,11.0625 250.1956,11.0625 Q250.4206,11.0625 250.5612,11.2219 Q250.7019,11.3719 250.7019,11.7375 L250.7019,12.6094 Q250.7019,12.975 250.5612,13.1344 Q250.4206,13.2938 250.1956,13.2938 Q249.9894,13.2938 249.8675,13.1719 Q249.7456,13.0594 249.68,12.75 Q249.6519,12.5344 249.5394,12.4219 Q249.3425,12.1969 248.9769,12.0656 Q248.6112,11.9344 248.2362,11.9344 Q247.7769,11.9344 247.3925,12.1313 Q247.0175,12.3281 246.7175,12.7781 Q246.4269,13.2281 246.4269,13.8469 L246.4269,14.5031 Q246.4269,15.2437 246.9612,15.7406 Q247.4956,16.2281 248.4519,16.2281 Q249.0144,16.2281 249.4081,16.0781 Q249.6425,15.9844 249.8956,15.7219 Q250.055,15.5625 250.1394,15.5156 Q250.2331,15.4688 250.355,15.4688 Q250.5519,15.4688 250.7019,15.6281 Q250.8612,15.7781 250.8612,15.9844 Q250.8612,16.1906 250.655,16.4344 Q250.355,16.7813 249.8769,16.9781 Q249.23,17.25 248.4519,17.25 Q247.5425,17.25 246.8206,16.875 Q246.23,16.575 245.8175,15.9375 Q245.405,15.2906 245.405,14.5219 L245.405,13.8281 Q245.405,13.0313 245.7706,12.3469 Q246.1456,11.6531 246.8019,11.2875 Q247.4581,10.9125 248.1987,10.9125 Q248.6394,10.9125 249.0237,11.0156 Q249.4175,11.1094 249.7456,11.325 Z " fill="#000000"/><text fill="#000000" font-family="sans-serif" font-size="8.4" lengthAdjust="spacing" textLength="27.5502" x="260.3862" y="17.2781">SignUp</text><line style="stroke:#181818;stroke-width:0.3;" x1="186" x2="342.8227" y1="23.4" y2="23.4"/><rect fill="none" height="3.6" style="stroke:#C82930;stroke-width:0.6;" width="3.6" x="190.2" y="30.4863"/><text fill="#000000" font-family="sans-serif" font-size="8.4" lengthAdjust="spacing" textLength="76.5721" x="197.4" y="34.8645">FirebaseAuth mAuth</text><rect fill="none" height="3.6" style="stroke:#C82930;stroke-width:0.6;" width="3.6" x="190.2" y="41.659"/><text fill="#000000" font-family="sans-serif" font-size="8.4" lengthAdjust="spacing" textLength="77.499" x="197.4" y="46.0371">FirebaseFirestore db</text><rect fill="none" height="3.6" style="stroke:#C82930;stroke-width:0.6;" width="3.6" x="190.2" y="52.8316"/><text fill="#000000" font-family="sans-serif" font-size="8.4" lengthAdjust="spacing" textLength="53.2137" x="197.4" y="57.2098">User newUser</text><rect fill="none" height="3.6" style="stroke:#C82930;stroke-width:0.6;" width="3.6" x="190.2" y="64.0043"/><text fill="#000000" font-family="sans-serif" font-size="8.4" lengthAdjust="spacing" textLength="84.5086" x="197.4" y="68.3824">FirebaseManager mng</text><line style="stroke:#181818;stroke-width:0.3;" x1="186" x2="342.8227" y1="72.8906" y2="72.8906"/><ellipse cx="192" cy="81.777" fill="#84BE84" rx="1.8" ry="1.8" style="stroke:#038048;stroke-width:0.6;"/><text fill="#000000" font-family="sans-serif" font-size="8.4" lengthAdjust="spacing" textLength="142.4227" x="197.4" y="84.3551">onCreate(Bundle savedInstanceState)</text><rect fill="#F24D5C" height="3.6" style="stroke:#C82930;stroke-width:0.6;" width="3.6" x="190.2" y="91.1496"/><text fill="#000000" font-family="sans-serif" font-size="8.4" lengthAdjust="spacing" textLength="45.7529" x="197.4" y="95.5277">SignUpBtn()</text><rect fill="#F24D5C" height="3.6" style="stroke:#C82930;stroke-width:0.6;" width="3.6" x="190.2" y="102.3223"/><text fill="#000000" font-family="sans-serif" font-size="8.4" lengthAdjust="spacing" textLength="42.0246" x="197.4" y="106.7004">LogInLink()</text></g><!--class LogIn--><g id="elem_LogIn"><rect codeLine="13" fill="#F1F1F1" height="73.4906" id="LogIn" rx="1.5" ry="1.5" style="stroke:#181818;stroke-width:0.3;" width="158.0227" x="6.6" y="21"/><ellipse cx="72.5511" cy="30.6" fill="#ADD1B2" rx="6.6" ry="6.6" style="stroke:#181818;stroke-width:0.6;"/><path d="M74.2104,28.125 Q74.3042,27.9938 74.4167,27.9281 Q74.5292,27.8625 74.6604,27.8625 Q74.8854,27.8625 75.0261,28.0219 Q75.1667,28.1719 75.1667,28.5375 L75.1667,29.4094 Q75.1667,29.775 75.0261,29.9344 Q74.8854,30.0938 74.6604,30.0938 Q74.4542,30.0938 74.3323,29.9719 Q74.2104,29.8594 74.1448,29.55 Q74.1167,29.3344 74.0042,29.2219 Q73.8073,28.9969 73.4417,28.8656 Q73.0761,28.7344 72.7011,28.7344 Q72.2417,28.7344 71.8573,28.9313 Q71.4823,29.1281 71.1823,29.5781 Q70.8917,30.0281 70.8917,30.6469 L70.8917,31.3031 Q70.8917,32.0437 71.4261,32.5406 Q71.9604,33.0281 72.9167,33.0281 Q73.4792,33.0281 73.8729,32.8781 Q74.1073,32.7844 74.3604,32.5219 Q74.5198,32.3625 74.6042,32.3156 Q74.6979,32.2688 74.8198,32.2688 Q75.0167,32.2688 75.1667,32.4281 Q75.3261,32.5781 75.3261,32.7844 Q75.3261,32.9906 75.1198,33.2344 Q74.8198,33.5813 74.3417,33.7781 Q73.6948,34.05 72.9167,34.05 Q72.0073,34.05 71.2854,33.675 Q70.6948,33.375 70.2823,32.7375 Q69.8698,32.0906 69.8698,31.3219 L69.8698,30.6281 Q69.8698,29.8312 70.2354,29.1469 Q70.6104,28.4531 71.2667,28.0875 Q71.9229,27.7125 72.6636,27.7125 Q73.1042,27.7125 73.4886,27.8156 Q73.8823,27.9094 74.2104,28.125 Z " fill="#000000"/><text fill="#000000" font-family="sans-serif" font-size="8.4" lengthAdjust="spacing" textLength="21.0205" x="84.8511" y="34.0781">LogIn</text><line style="stroke:#181818;stroke-width:0.3;" x1="7.2" x2="164.0227" y1="40.2" y2="40.2"/><rect fill="none" height="3.6" style="stroke:#C82930;stroke-width:0.6;" width="3.6" x="11.4" y="47.2863"/><text fill="#000000" font-family="sans-serif" font-size="8.4" lengthAdjust="spacing" textLength="76.5721" x="18.6" y="51.6645">FirebaseAuth mAuth</text><rect fill="none" height="3.6" style="stroke:#C82930;stroke-width:0.6;" width="3.6" x="11.4" y="58.459"/><text fill="#000000" font-family="sans-serif" font-size="8.4" lengthAdjust="spacing" textLength="84.5086" x="18.6" y="62.8371">FirebaseManager mng</text><line style="stroke:#181818;stroke-width:0.3;" x1="7.2" x2="164.0227" y1="67.3453" y2="67.3453"/><ellipse cx="13.2" cy="76.2316" fill="#84BE84" rx="1.8" ry="1.8" style="stroke:#038048;stroke-width:0.6;"/><text fill="#000000" font-family="sans-serif" font-size="8.4" lengthAdjust="spacing" textLength="142.4227" x="18.6" y="78.8098">onCreate(Bundle savedInstanceState)</text><rect fill="#F24D5C" height="3.6" style="stroke:#C82930;stroke-width:0.6;" width="3.6" x="11.4" y="85.6043"/><text fill="#000000" font-family="sans-serif" font-size="8.4" lengthAdjust="spacing" textLength="33.1447" x="18.6" y="89.9824">SignUp()</text></g><!--class FirebaseManager--><g id="elem_FirebaseManager"><rect codeLine="20" fill="#F1F1F1" height="107.0086" id="FirebaseManager" rx="1.5" ry="1.5" style="stroke:#181818;stroke-width:0.3;" width="138.3926" x="18.6" y="208.5"/><ellipse cx="52.3292" cy="218.1" fill="#ADD1B2" rx="6.6" ry="6.6" style="stroke:#181818;stroke-width:0.6;"/><path d="M53.9886,215.625 Q54.0823,215.4938 54.1948,215.4281 Q54.3073,215.3625 54.4386,215.3625 Q54.6636,215.3625 54.8042,215.5219 Q54.9448,215.6719 54.9448,216.0375 L54.9448,216.9094 Q54.9448,217.275 54.8042,217.4344 Q54.6636,217.5938 54.4386,217.5938 Q54.2323,217.5938 54.1104,217.4719 Q53.9886,217.3594 53.9229,217.05 Q53.8948,216.8344 53.7823,216.7219 Q53.5854,216.4969 53.2198,216.3656 Q52.8542,216.2344 52.4792,216.2344 Q52.0198,216.2344 51.6354,216.4313 Q51.2604,216.6281 50.9604,217.0781 Q50.6698,217.5281 50.6698,218.1469 L50.6698,218.8031 Q50.6698,219.5438 51.2042,220.0406 Q51.7386,220.5281 52.6948,220.5281 Q53.2573,220.5281 53.6511,220.3781 Q53.8854,220.2844 54.1386,220.0219 Q54.2979,219.8625 54.3823,219.8156 Q54.4761,219.7687 54.5979,219.7687 Q54.7948,219.7687 54.9448,219.9281 Q55.1042,220.0781 55.1042,220.2844 Q55.1042,220.4906 54.8979,220.7344 Q54.5979,221.0812 54.1198,221.2781 Q53.4729,221.55 52.6948,221.55 Q51.7854,221.55 51.0636,221.175 Q50.4729,220.875 50.0604,220.2375 Q49.6479,219.5906 49.6479,218.8219 L49.6479,218.1281 Q49.6479,217.3312 50.0136,216.6469 Q50.3886,215.9531 51.0448,215.5875 Q51.7011,215.2125 52.4417,215.2125 Q52.8823,215.2125 53.2667,215.3156 Q53.6604,215.4094 53.9886,215.625 Z " fill="#000000"/><text fill="#000000" font-family="sans-serif" font-size="8.4" lengthAdjust="spacing" textLength="65.8342" x="64.6292" y="221.5781">FirebaseManager</text><line style="stroke:#181818;stroke-width:0.3;" x1="19.2" x2="156.3926" y1="227.7" y2="227.7"/><rect fill="none" height="3.6" style="stroke:#C82930;stroke-width:0.6;" width="3.6" x="23.4" y="234.7863"/><text fill="#000000" font-family="sans-serif" font-size="8.4" lengthAdjust="spacing" textLength="121.3939" x="30.6" y="239.1645">static FirebaseManager instance</text><rect fill="none" height="3.6" style="stroke:#C82930;stroke-width:0.6;" width="3.6" x="23.4" y="245.959"/><text fill="#000000" font-family="sans-serif" font-size="8.4" lengthAdjust="spacing" textLength="94.3154" x="30.6" y="250.3371">final FirebaseAuth mAuth</text><rect fill="none" height="3.6" style="stroke:#C82930;stroke-width:0.6;" width="3.6" x="23.4" y="257.1316"/><text fill="#000000" font-family="sans-serif" font-size="8.4" lengthAdjust="spacing" textLength="95.2424" x="30.6" y="261.5098">final FirebaseFirestore db</text><line style="stroke:#181818;stroke-width:0.3;" x1="19.2" x2="156.3926" y1="266.018" y2="266.018"/><rect fill="#F24D5C" height="3.6" style="stroke:#C82930;stroke-width:0.6;" width="3.6" x="23.4" y="273.1043"/><text fill="#000000" font-family="sans-serif" font-size="8.4" lengthAdjust="spacing" textLength="71.4287" x="30.6" y="277.4824">FirebaseManager()</text><ellipse cx="25.2" cy="286.077" fill="#84BE84" rx="1.8" ry="1.8" style="stroke:#038048;stroke-width:0.6;"/><text fill="#000000" font-family="sans-serif" font-size="8.4" lengthAdjust="spacing" textLength="122.7926" x="30.6" y="288.6551">static synchronized getInstance()</text><ellipse cx="25.2" cy="297.2496" fill="#84BE84" rx="1.8" ry="1.8" style="stroke:#038048;stroke-width:0.6;"/><text fill="#000000" font-family="sans-serif" font-size="8.4" lengthAdjust="spacing" textLength="34.5516" x="30.6" y="299.8277">getAuth()</text><ellipse cx="25.2" cy="308.4223" fill="#84BE84" rx="1.8" ry="1.8" style="stroke:#038048;stroke-width:0.6;"/><text fill="#000000" font-family="sans-serif" font-size="8.4" lengthAdjust="spacing" textLength="28.0096" x="30.6" y="311.0004">getDb()</text></g><!--class User--><g id="elem_User"><rect codeLine="30" fill="#F1F1F1" height="129.3539" id="User" rx="1.5" ry="1.5" style="stroke:#181818;stroke-width:0.3;" width="168.7195" x="180" y="197.1"/><ellipse cx="252.9422" cy="206.7" fill="#ADD1B2" rx="6.6" ry="6.6" style="stroke:#181818;stroke-width:0.6;"/><path d="M254.6016,204.225 Q254.6953,204.0938 254.8078,204.0281 Q254.9203,203.9625 255.0516,203.9625 Q255.2766,203.9625 255.4172,204.1219 Q255.5578,204.2719 255.5578,204.6375 L255.5578,205.5094 Q255.5578,205.875 255.4172,206.0344 Q255.2766,206.1938 255.0516,206.1938 Q254.8453,206.1938 254.7234,206.0719 Q254.6016,205.9594 254.5359,205.65 Q254.5078,205.4344 254.3953,205.3219 Q254.1984,205.0969 253.8328,204.9656 Q253.4672,204.8344 253.0922,204.8344 Q252.6328,204.8344 252.2484,205.0313 Q251.8734,205.2281 251.5734,205.6781 Q251.2828,206.1281 251.2828,206.7469 L251.2828,207.4031 Q251.2828,208.1437 251.8172,208.6406 Q252.3516,209.1281 253.3078,209.1281 Q253.8703,209.1281 254.2641,208.9781 Q254.4984,208.8844 254.7516,208.6219 Q254.9109,208.4625 254.9953,208.4156 Q255.0891,208.3688 255.2109,208.3688 Q255.4078,208.3688 255.5578,208.5281 Q255.7172,208.6781 255.7172,208.8844 Q255.7172,209.0906 255.5109,209.3344 Q255.2109,209.6813 254.7328,209.8781 Q254.0859,210.15 253.3078,210.15 Q252.3984,210.15 251.6766,209.775 Q251.0859,209.475 250.6734,208.8375 Q250.2609,208.1906 250.2609,207.4219 L250.2609,206.7281 Q250.2609,205.9313 250.6266,205.2469 Q251.0016,204.5531 251.6578,204.1875 Q252.3141,203.8125 253.0547,203.8125 Q253.4953,203.8125 253.8797,203.9156 Q254.2734,204.0094 254.6016,204.225 Z " fill="#000000"/><text fill="#000000" font-family="sans-serif" font-size="8.4" lengthAdjust="spacing" textLength="17.7352" x="265.2422" y="210.1781">User</text><line style="stroke:#181818;stroke-width:0.3;" x1="180.6" x2="348.1195" y1="216.3" y2="216.3"/><rect fill="none" height="3.6" style="stroke:#C82930;stroke-width:0.6;" width="3.6" x="184.8" y="223.3863"/><text fill="#000000" font-family="sans-serif" font-size="8.4" lengthAdjust="spacing" textLength="48.5584" x="192" y="227.7645">final String id</text><rect fill="none" height="3.6" style="stroke:#C82930;stroke-width:0.6;" width="3.6" x="184.8" y="234.559"/><text fill="#000000" font-family="sans-serif" font-size="8.4" lengthAdjust="spacing" textLength="61.6301" x="192" y="238.9371">String username</text><rect fill="none" height="3.6" style="stroke:#C82930;stroke-width:0.6;" width="3.6" x="184.8" y="245.7316"/><text fill="#000000" font-family="sans-serif" font-size="8.4" lengthAdjust="spacing" textLength="44.3502" x="192" y="250.1098">String email</text><line style="stroke:#181818;stroke-width:0.3;" x1="180.6" x2="348.1195" y1="254.618" y2="254.618"/><ellipse cx="186.6" cy="263.5043" fill="#84BE84" rx="1.8" ry="1.8" style="stroke:#038048;stroke-width:0.6;"/><text fill="#000000" font-family="sans-serif" font-size="8.4" lengthAdjust="spacing" textLength="153.1195" x="192" y="266.0824">User(String id, String name, String email)</text><ellipse cx="186.6" cy="274.677" fill="#84BE84" rx="1.8" ry="1.8" style="stroke:#038048;stroke-width:0.6;"/><text fill="#000000" font-family="sans-serif" font-size="8.4" lengthAdjust="spacing" textLength="38.2758" x="192" y="277.2551">getEmail()</text><ellipse cx="186.6" cy="285.8496" fill="#84BE84" rx="1.8" ry="1.8" style="stroke:#038048;stroke-width:0.6;"/><text fill="#000000" font-family="sans-serif" font-size="8.4" lengthAdjust="spacing" textLength="82.1543" x="192" y="288.4277">setEmail(String email)</text><ellipse cx="186.6" cy="297.0223" fill="#84BE84" rx="1.8" ry="1.8" style="stroke:#038048;stroke-width:0.6;"/><text fill="#000000" font-family="sans-serif" font-size="8.4" lengthAdjust="spacing" textLength="24.2771" x="192" y="299.6004">getId()</text><ellipse cx="186.6" cy="308.1949" fill="#84BE84" rx="1.8" ry="1.8" style="stroke:#038048;stroke-width:0.6;"/><text fill="#000000" font-family="sans-serif" font-size="8.4" lengthAdjust="spacing" textLength="56.0191" x="192" y="310.773">getUsername()</text><ellipse cx="186.6" cy="319.3676" fill="#84BE84" rx="1.8" ry="1.8" style="stroke:#038048;stroke-width:0.6;"/><text fill="#000000" font-family="sans-serif" font-size="8.4" lengthAdjust="spacing" textLength="117.1775" x="192" y="321.9457">setUsername(String username)</text></g><!--class AbstractItem--><g id="elem_AbstractItem"><rect codeLine="42" fill="#F1F1F1" height="62.318" id="AbstractItem" rx="1.5" ry="1.5" style="stroke:#181818;stroke-width:0.3;" width="111.3059" x="455.1" y="26.4"/><ellipse cx="484.6292" cy="36" fill="#A9DCDF" rx="6.6" ry="6.6" style="stroke:#181818;stroke-width:0.6;"/><path d="M485.9417,37.0594 L483.4573,37.0594 L483.2042,37.6781 L483.4573,37.6781 Q483.8229,37.6781 483.9823,37.8188 Q484.1417,37.9594 484.1417,38.1938 Q484.1417,38.4187 483.9823,38.5594 Q483.8229,38.7 483.4573,38.7 L482.0792,38.7 Q481.7136,38.7 481.5636,38.5594 Q481.4042,38.4187 481.4042,38.1844 Q481.4042,37.9594 481.5729,37.8188 Q481.7323,37.6687 482.1073,37.6781 L483.7104,33.6844 L483.0448,33.6844 Q482.6792,33.6844 482.5198,33.5437 Q482.3604,33.4031 482.3604,33.1687 Q482.3604,32.9438 482.5198,32.8031 Q482.6792,32.6625 483.0448,32.6625 L485.2479,32.6625 L487.2823,37.6781 Q487.6386,37.6781 487.7511,37.7625 Q487.9854,37.9219 487.9854,38.1938 Q487.9854,38.4187 487.8261,38.5594 Q487.6761,38.7 487.3104,38.7 L485.9323,38.7 Q485.5667,38.7 485.4073,38.5594 Q485.2479,38.4187 485.2479,38.1844 Q485.2479,37.9594 485.4073,37.8188 Q485.5667,37.6781 485.9323,37.6781 L486.1854,37.6781 L485.9417,37.0594 Z M485.5104,36.0375 L484.6948,34.0125 L483.8698,36.0375 L485.5104,36.0375 Z " fill="#000000"/><text fill="#000000" font-family="sans-serif" font-size="8.4" font-style="italic" lengthAdjust="spacing" textLength="47.1475" x="496.9292" y="39.4781">AbstractItem</text><line style="stroke:#181818;stroke-width:0.3;" x1="455.7" x2="565.8059" y1="45.6" y2="45.6"/><line style="stroke:#181818;stroke-width:0.3;" x1="455.7" x2="565.8059" y1="50.4" y2="50.4"/><ellipse cx="461.7" cy="59.2863" fill="#84BE84" rx="1.8" ry="1.8" style="stroke:#038048;stroke-width:0.6;"/><text fill="#000000" font-family="sans-serif" font-size="8.4" lengthAdjust="spacing" textLength="89.6438" x="467.1" y="61.8645">buildClothing() : IBuilder</text><ellipse cx="461.7" cy="70.459" fill="#84BE84" rx="1.8" ry="1.8" style="stroke:#038048;stroke-width:0.6;"/><text fill="#000000" font-family="sans-serif" font-size="8.4" lengthAdjust="spacing" textLength="95.7059" x="467.1" y="73.0371">buildElectronic() : IBuilder</text><ellipse cx="461.7" cy="81.6316" fill="#84BE84" rx="1.8" ry="1.8" style="stroke:#038048;stroke-width:0.6;"/><text fill="#000000" font-family="sans-serif" font-size="8.4" lengthAdjust="spacing" textLength="92.4369" x="467.1" y="84.2098">buildFurniture() : IBuilder</text></g><!--class ClothingFactory--><g id="elem_ClothingFactory"><rect codeLine="48" fill="#F1F1F1" height="28.8" id="ClothingFactory" rx="1.5" ry="1.5" style="stroke:#181818;stroke-width:0.3;" width="78.0246" x="369.9" y="247.5"/><ellipse cx="378.9" cy="257.1" fill="#ADD1B2" rx="6.6" ry="6.6" style="stroke:#181818;stroke-width:0.6;"/><path d="M380.5594,254.625 Q380.6531,254.4937 380.7656,254.4281 Q380.8781,254.3625 381.0094,254.3625 Q381.2344,254.3625 381.375,254.5219 Q381.5156,254.6719 381.5156,255.0375 L381.5156,255.9094 Q381.5156,256.275 381.375,256.4344 Q381.2344,256.5938 381.0094,256.5938 Q380.8031,256.5938 380.6813,256.4719 Q380.5594,256.3594 380.4938,256.05 Q380.4656,255.8344 380.3531,255.7219 Q380.1563,255.4969 379.7906,255.3656 Q379.425,255.2344 379.05,255.2344 Q378.5906,255.2344 378.2063,255.4312 Q377.8313,255.6281 377.5313,256.0781 Q377.2406,256.5281 377.2406,257.1469 L377.2406,257.8031 Q377.2406,258.5438 377.775,259.0406 Q378.3094,259.5281 379.2656,259.5281 Q379.8281,259.5281 380.2219,259.3781 Q380.4563,259.2844 380.7094,259.0219 Q380.8688,258.8625 380.9531,258.8156 Q381.0469,258.7688 381.1688,258.7688 Q381.3656,258.7688 381.5156,258.9281 Q381.675,259.0781 381.675,259.2844 Q381.675,259.4906 381.4688,259.7344 Q381.1688,260.0813 380.6906,260.2781 Q380.0438,260.55 379.2656,260.55 Q378.3563,260.55 377.6344,260.175 Q377.0438,259.875 376.6312,259.2375 Q376.2188,258.5906 376.2188,257.8219 L376.2188,257.1281 Q376.2188,256.3313 376.5844,255.6469 Q376.9594,254.9531 377.6156,254.5875 Q378.2719,254.2125 379.0125,254.2125 Q379.4531,254.2125 379.8375,254.3156 Q380.2313,254.4094 380.5594,254.625 Z " fill="#000000"/><text fill="#000000" font-family="sans-serif" font-size="8.4" lengthAdjust="spacing" textLength="58.8246" x="387.3" y="260.5781">ClothingFactory</text><line style="stroke:#181818;stroke-width:0.3;" x1="370.5" x2="447.3246" y1="266.7" y2="266.7"/><line style="stroke:#181818;stroke-width:0.3;" x1="370.5" x2="447.3246" y1="271.5" y2="271.5"/></g><!--class ElectronicFactory--><g id="elem_ElectronicFactory"><rect codeLine="49" fill="#F1F1F1" height="28.8" id="ElectronicFactory" rx="1.5" ry="1.5" style="stroke:#181818;stroke-width:0.3;" width="84.0867" x="468.9" y="247.5"/><ellipse cx="477.9" cy="257.1" fill="#ADD1B2" rx="6.6" ry="6.6" style="stroke:#181818;stroke-width:0.6;"/><path d="M479.5594,254.625 Q479.6531,254.4937 479.7656,254.4281 Q479.8781,254.3625 480.0094,254.3625 Q480.2344,254.3625 480.375,254.5219 Q480.5156,254.6719 480.5156,255.0375 L480.5156,255.9094 Q480.5156,256.275 480.375,256.4344 Q480.2344,256.5938 480.0094,256.5938 Q479.8031,256.5938 479.6813,256.4719 Q479.5594,256.3594 479.4938,256.05 Q479.4656,255.8344 479.3531,255.7219 Q479.1563,255.4969 478.7906,255.3656 Q478.425,255.2344 478.05,255.2344 Q477.5906,255.2344 477.2062,255.4312 Q476.8312,255.6281 476.5313,256.0781 Q476.2406,256.5281 476.2406,257.1469 L476.2406,257.8031 Q476.2406,258.5438 476.775,259.0406 Q477.3094,259.5281 478.2656,259.5281 Q478.8281,259.5281 479.2219,259.3781 Q479.4562,259.2844 479.7094,259.0219 Q479.8688,258.8625 479.9531,258.8156 Q480.0469,258.7688 480.1688,258.7688 Q480.3656,258.7688 480.5156,258.9281 Q480.675,259.0781 480.675,259.2844 Q480.675,259.4906 480.4688,259.7344 Q480.1688,260.0813 479.6906,260.2781 Q479.0438,260.55 478.2656,260.55 Q477.3563,260.55 476.6344,260.175 Q476.0438,259.875 475.6312,259.2375 Q475.2188,258.5906 475.2188,257.8219 L475.2188,257.1281 Q475.2188,256.3313 475.5844,255.6469 Q475.9594,254.9531 476.6156,254.5875 Q477.2719,254.2125 478.0125,254.2125 Q478.4531,254.2125 478.8375,254.3156 Q479.2313,254.4094 479.5594,254.625 Z " fill="#000000"/><text fill="#000000" font-family="sans-serif" font-size="8.4" lengthAdjust="spacing" textLength="64.8867" x="486.3" y="260.5781">ElectronicFactory</text><line style="stroke:#181818;stroke-width:0.3;" x1="469.5" x2="552.3867" y1="266.7" y2="266.7"/><line style="stroke:#181818;stroke-width:0.3;" x1="469.5" x2="552.3867" y1="271.5" y2="271.5"/></g><!--class FurnitureFactory--><g id="elem_FurnitureFactory"><rect codeLine="50" fill="#F1F1F1" height="28.8" id="FurnitureFactory" rx="1.5" ry="1.5" style="stroke:#181818;stroke-width:0.3;" width="80.8178" x="574.2" y="247.5"/><ellipse cx="583.2" cy="257.1" fill="#ADD1B2" rx="6.6" ry="6.6" style="stroke:#181818;stroke-width:0.6;"/><path d="M584.8594,254.625 Q584.9531,254.4937 585.0656,254.4281 Q585.1781,254.3625 585.3094,254.3625 Q585.5344,254.3625 585.675,254.5219 Q585.8156,254.6719 585.8156,255.0375 L585.8156,255.9094 Q585.8156,256.275 585.675,256.4344 Q585.5344,256.5938 585.3094,256.5938 Q585.1031,256.5938 584.9812,256.4719 Q584.8594,256.3594 584.7937,256.05 Q584.7656,255.8344 584.6531,255.7219 Q584.4563,255.4969 584.0906,255.3656 Q583.725,255.2344 583.35,255.2344 Q582.8906,255.2344 582.5063,255.4312 Q582.1313,255.6281 581.8313,256.0781 Q581.5406,256.5281 581.5406,257.1469 L581.5406,257.8031 Q581.5406,258.5438 582.075,259.0406 Q582.6094,259.5281 583.5656,259.5281 Q584.1281,259.5281 584.5219,259.3781 Q584.7563,259.2844 585.0094,259.0219 Q585.1687,258.8625 585.2531,258.8156 Q585.3469,258.7688 585.4688,258.7688 Q585.6656,258.7688 585.8156,258.9281 Q585.975,259.0781 585.975,259.2844 Q585.975,259.4906 585.7688,259.7344 Q585.4688,260.0813 584.9906,260.2781 Q584.3438,260.55 583.5656,260.55 Q582.6563,260.55 581.9344,260.175 Q581.3438,259.875 580.9313,259.2375 Q580.5188,258.5906 580.5188,257.8219 L580.5188,257.1281 Q580.5188,256.3313 580.8844,255.6469 Q581.2594,254.9531 581.9156,254.5875 Q582.5719,254.2125 583.3125,254.2125 Q583.7531,254.2125 584.1375,254.3156 Q584.5313,254.4094 584.8594,254.625 Z " fill="#000000"/><text fill="#000000" font-family="sans-serif" font-size="8.4" lengthAdjust="spacing" textLength="61.6178" x="591.6" y="260.5781">FurnitureFactory</text><line style="stroke:#181818;stroke-width:0.3;" x1="574.8" x2="654.4178" y1="266.7" y2="266.7"/><line style="stroke:#181818;stroke-width:0.3;" x1="574.8" x2="654.4178" y1="271.5" y2="271.5"/></g><!--class Type--><g id="elem_Type"><rect codeLine="52" fill="#F1F1F1" height="62.318" id="Type" rx="1.5" ry="1.5" style="stroke:#181818;stroke-width:0.3;" width="43.1502" x="671.1" y="26.4"/><ellipse cx="682.4741" cy="36" fill="#EB937F" rx="6.6" ry="6.6" style="stroke:#181818;stroke-width:0.6;"/><path d="M681.7897,36.4781 L681.7897,37.9781 L684.3866,37.9781 L684.3866,37.425 Q684.3866,37.0594 684.5272,36.9 Q684.6772,36.7406 684.9022,36.7406 Q685.1272,36.7406 685.2679,36.9 Q685.4085,37.0594 685.4085,37.425 L685.4085,39 L680.6085,39 Q680.2335,39 680.0741,38.8594 Q679.9241,38.7188 679.9241,38.4844 Q679.9241,38.2594 680.0835,38.1188 Q680.2429,37.9781 680.6085,37.9781 L680.7679,37.9781 L680.7679,33.9844 L680.6085,33.9844 Q680.2335,33.9844 680.0741,33.8438 Q679.9241,33.7031 679.9241,33.4688 Q679.9241,33.2438 680.0741,33.1031 Q680.2335,32.9625 680.6085,32.9625 L685.1835,32.9625 L685.1835,34.5188 Q685.1835,34.8844 685.0429,35.0437 Q684.9116,35.1938 684.6772,35.1938 Q684.4522,35.1938 684.3116,35.0437 Q684.171,34.8844 684.171,34.5188 L684.171,33.9844 L681.7897,33.9844 L681.7897,35.4563 L682.6804,35.4563 Q682.6804,35.0625 682.7554,34.95 Q682.9147,34.7063 683.196,34.7063 Q683.421,34.7063 683.5616,34.8656 Q683.7022,35.0156 683.7022,35.3813 L683.7022,36.5625 Q683.7022,36.8906 683.6272,37.0031 Q683.4679,37.2375 683.196,37.2375 Q682.9147,37.2375 682.7554,36.9938 Q682.6804,36.8813 682.6804,36.4781 L681.7897,36.4781 Z " fill="#000000"/><text fill="#000000" font-family="sans-serif" font-size="8.4" lengthAdjust="spacing" textLength="18.6744" x="691.4017" y="39.4781">Type</text><line style="stroke:#181818;stroke-width:0.3;" x1="671.7" x2="713.6502" y1="45.6" y2="45.6"/><text fill="#000000" font-family="sans-serif" font-size="8.4" lengthAdjust="spacing" textLength="35.9502" x="674.7" y="57.0645">electronic</text><text fill="#000000" font-family="sans-serif" font-size="8.4" lengthAdjust="spacing" textLength="28.9529" x="674.7" y="68.2371">clothing</text><text fill="#000000" font-family="sans-serif" font-size="8.4" lengthAdjust="spacing" textLength="30.815" x="674.7" y="79.4098">furniture</text><line style="stroke:#181818;stroke-width:0.3;" x1="671.7" x2="713.6502" y1="83.918" y2="83.918"/></g><!--class IBuilder--><g id="elem_IBuilder"><rect codeLine="58" fill="#F1F1F1" height="95.8359" id="IBuilder" rx="1.5" ry="1.5" style="stroke:#181818;stroke-width:0.3;" width="118.783" x="676.5" y="213.9"/><ellipse cx="719.1009" cy="223.5" fill="#B4A7E5" rx="6.6" ry="6.6" style="stroke:#181818;stroke-width:0.6;"/><path d="M719.6728,221.4844 L719.6728,225.4781 L720.704,225.4781 Q721.0696,225.4781 721.229,225.6188 Q721.3884,225.7594 721.3884,225.9938 Q721.3884,226.2188 721.229,226.3594 Q721.0696,226.5 720.704,226.5 L717.6196,226.5 Q717.254,226.5 717.0946,226.3594 Q716.9353,226.2188 716.9353,225.9844 Q716.9353,225.7594 717.0946,225.6188 Q717.254,225.4781 717.6196,225.4781 L718.6509,225.4781 L718.6509,221.4844 L717.6196,221.4844 Q717.254,221.4844 717.0946,221.3438 Q716.9353,221.2031 716.9353,220.9688 Q716.9353,220.7438 717.0946,220.6031 Q717.254,220.4625 717.6196,220.4625 L720.704,220.4625 Q721.0696,220.4625 721.229,220.6031 Q721.3884,220.7438 721.3884,220.9688 Q721.3884,221.2031 721.229,221.3438 Q721.0696,221.4844 720.704,221.4844 L719.6728,221.4844 Z " fill="#000000"/><text fill="#000000" font-family="sans-serif" font-size="8.4" font-style="italic" lengthAdjust="spacing" textLength="28.4813" x="731.4009" y="226.9781">IBuilder</text><line style="stroke:#181818;stroke-width:0.3;" x1="677.1" x2="794.683" y1="233.1" y2="233.1"/><line style="stroke:#181818;stroke-width:0.3;" x1="677.1" x2="794.683" y1="237.9" y2="237.9"/><ellipse cx="683.1" cy="246.7863" fill="#84BE84" rx="1.8" ry="1.8" style="stroke:#038048;stroke-width:0.6;"/><text fill="#000000" font-family="sans-serif" font-size="8.4" lengthAdjust="spacing" textLength="57.4178" x="688.5" y="249.3645">SetID(String id)</text><ellipse cx="683.1" cy="257.959" fill="#84BE84" rx="1.8" ry="1.8" style="stroke:#038048;stroke-width:0.6;"/><text fill="#000000" font-family="sans-serif" font-size="8.4" lengthAdjust="spacing" textLength="85.899" x="688.5" y="260.5371">SetName(String name)</text><ellipse cx="683.1" cy="269.1316" fill="#84BE84" rx="1.8" ry="1.8" style="stroke:#038048;stroke-width:0.6;"/><text fill="#000000" font-family="sans-serif" font-size="8.4" lengthAdjust="spacing" textLength="86.3789" x="688.5" y="271.7098">SetBrand(String brand)</text><ellipse cx="683.1" cy="280.3043" fill="#84BE84" rx="1.8" ry="1.8" style="stroke:#038048;stroke-width:0.6;"/><text fill="#000000" font-family="sans-serif" font-size="8.4" lengthAdjust="spacing" textLength="79.8246" x="688.5" y="282.8824">SetPrice(String price)</text><ellipse cx="683.1" cy="291.477" fill="#84BE84" rx="1.8" ry="1.8" style="stroke:#038048;stroke-width:0.6;"/><text fill="#000000" font-family="sans-serif" font-size="8.4" lengthAdjust="spacing" textLength="79.3611" x="688.5" y="294.0551">SetDesc(String desc)</text><ellipse cx="683.1" cy="302.6496" fill="#84BE84" rx="1.8" ry="1.8" style="stroke:#038048;stroke-width:0.6;"/><text fill="#000000" font-family="sans-serif" font-size="8.4" lengthAdjust="spacing" textLength="103.183" x="688.5" y="305.2277">SetQuantity(String quantity)</text></g><!--class ClothingBuilder--><g id="elem_ClothingBuilder"><rect codeLine="67" fill="#F1F1F1" height="28.8" id="ClothingBuilder" rx="1.5" ry="1.5" style="stroke:#181818;stroke-width:0.3;" width="76.1666" x="597.6" y="412.8"/><ellipse cx="606.6" cy="422.4" fill="#ADD1B2" rx="6.6" ry="6.6" style="stroke:#181818;stroke-width:0.6;"/><path d="M608.2594,419.925 Q608.3531,419.7938 608.4656,419.7281 Q608.5781,419.6625 608.7094,419.6625 Q608.9344,419.6625 609.075,419.8219 Q609.2156,419.9719 609.2156,420.3375 L609.2156,421.2094 Q609.2156,421.575 609.075,421.7344 Q608.9344,421.8938 608.7094,421.8938 Q608.5031,421.8938 608.3813,421.7719 Q608.2594,421.6594 608.1938,421.35 Q608.1656,421.1344 608.0531,421.0219 Q607.8562,420.7969 607.4906,420.6656 Q607.125,420.5344 606.75,420.5344 Q606.2906,420.5344 605.9063,420.7313 Q605.5313,420.9281 605.2312,421.3781 Q604.9406,421.8281 604.9406,422.4469 L604.9406,423.1031 Q604.9406,423.8438 605.475,424.3406 Q606.0094,424.8281 606.9656,424.8281 Q607.5281,424.8281 607.9219,424.6781 Q608.1563,424.5844 608.4094,424.3219 Q608.5688,424.1625 608.6531,424.1156 Q608.7469,424.0687 608.8688,424.0687 Q609.0656,424.0687 609.2156,424.2281 Q609.375,424.3781 609.375,424.5844 Q609.375,424.7906 609.1687,425.0344 Q608.8688,425.3812 608.3906,425.5781 Q607.7438,425.85 606.9656,425.85 Q606.0563,425.85 605.3344,425.475 Q604.7438,425.175 604.3313,424.5375 Q603.9187,423.8906 603.9187,423.1219 L603.9187,422.4281 Q603.9187,421.6312 604.2844,420.9469 Q604.6594,420.2531 605.3156,419.8875 Q605.9719,419.5125 606.7125,419.5125 Q607.1531,419.5125 607.5375,419.6156 Q607.9313,419.7094 608.2594,419.925 Z " fill="#000000"/><text fill="#000000" font-family="sans-serif" font-size="8.4" lengthAdjust="spacing" textLength="56.9666" x="615" y="425.8781">ClothingBuilder</text><line style="stroke:#181818;stroke-width:0.3;" x1="598.2" x2="673.1666" y1="432" y2="432"/><line style="stroke:#181818;stroke-width:0.3;" x1="598.2" x2="673.1666" y1="436.8" y2="436.8"/></g><!--class ElectronicBuilder--><g id="elem_ElectronicBuilder"><rect codeLine="68" fill="#F1F1F1" height="28.8" id="ElectronicBuilder" rx="1.5" ry="1.5" style="stroke:#181818;stroke-width:0.3;" width="82.2287" x="694.8" y="412.8"/><ellipse cx="703.8" cy="422.4" fill="#ADD1B2" rx="6.6" ry="6.6" style="stroke:#181818;stroke-width:0.6;"/><path d="M705.4594,419.925 Q705.5531,419.7938 705.6656,419.7281 Q705.7781,419.6625 705.9094,419.6625 Q706.1344,419.6625 706.275,419.8219 Q706.4156,419.9719 706.4156,420.3375 L706.4156,421.2094 Q706.4156,421.575 706.275,421.7344 Q706.1344,421.8938 705.9094,421.8938 Q705.7031,421.8938 705.5813,421.7719 Q705.4594,421.6594 705.3938,421.35 Q705.3656,421.1344 705.2531,421.0219 Q705.0563,420.7969 704.6906,420.6656 Q704.325,420.5344 703.95,420.5344 Q703.4906,420.5344 703.1062,420.7313 Q702.7312,420.9281 702.4313,421.3781 Q702.1406,421.8281 702.1406,422.4469 L702.1406,423.1031 Q702.1406,423.8438 702.675,424.3406 Q703.2094,424.8281 704.1656,424.8281 Q704.7281,424.8281 705.1219,424.6781 Q705.3562,424.5844 705.6094,424.3219 Q705.7688,424.1625 705.8531,424.1156 Q705.9469,424.0687 706.0688,424.0687 Q706.2656,424.0687 706.4156,424.2281 Q706.575,424.3781 706.575,424.5844 Q706.575,424.7906 706.3688,425.0344 Q706.0688,425.3812 705.5906,425.5781 Q704.9438,425.85 704.1656,425.85 Q703.2563,425.85 702.5344,425.475 Q701.9438,425.175 701.5313,424.5375 Q701.1188,423.8906 701.1188,423.1219 L701.1188,422.4281 Q701.1188,421.6312 701.4844,420.9469 Q701.8594,420.2531 702.5156,419.8875 Q703.1719,419.5125 703.9125,419.5125 Q704.3531,419.5125 704.7375,419.6156 Q705.1313,419.7094 705.4594,419.925 Z " fill="#000000"/><text fill="#000000" font-family="sans-serif" font-size="8.4" lengthAdjust="spacing" textLength="63.0287" x="712.2" y="425.8781">ElectronicBuilder</text><line style="stroke:#181818;stroke-width:0.3;" x1="695.4" x2="776.4287" y1="432" y2="432"/><line style="stroke:#181818;stroke-width:0.3;" x1="695.4" x2="776.4287" y1="436.8" y2="436.8"/></g><!--class FurnitureBuilder--><g id="elem_FurnitureBuilder"><rect codeLine="69" fill="#F1F1F1" height="28.8" id="FurnitureBuilder" rx="1.5" ry="1.5" style="stroke:#181818;stroke-width:0.3;" width="78.9598" x="798.3" y="412.8"/><ellipse cx="807.3" cy="422.4" fill="#ADD1B2" rx="6.6" ry="6.6" style="stroke:#181818;stroke-width:0.6;"/><path d="M808.9594,419.925 Q809.0531,419.7938 809.1656,419.7281 Q809.2781,419.6625 809.4094,419.6625 Q809.6344,419.6625 809.775,419.8219 Q809.9156,419.9719 809.9156,420.3375 L809.9156,421.2094 Q809.9156,421.575 809.775,421.7344 Q809.6344,421.8938 809.4094,421.8938 Q809.2031,421.8938 809.0813,421.7719 Q808.9594,421.6594 808.8938,421.35 Q808.8656,421.1344 808.7531,421.0219 Q808.5563,420.7969 808.1906,420.6656 Q807.825,420.5344 807.45,420.5344 Q806.9906,420.5344 806.6062,420.7313 Q806.2312,420.9281 805.9313,421.3781 Q805.6406,421.8281 805.6406,422.4469 L805.6406,423.1031 Q805.6406,423.8438 806.175,424.3406 Q806.7094,424.8281 807.6656,424.8281 Q808.2281,424.8281 808.6219,424.6781 Q808.8562,424.5844 809.1094,424.3219 Q809.2688,424.1625 809.3531,424.1156 Q809.4469,424.0687 809.5688,424.0687 Q809.7656,424.0687 809.9156,424.2281 Q810.075,424.3781 810.075,424.5844 Q810.075,424.7906 809.8688,425.0344 Q809.5688,425.3812 809.0906,425.5781 Q808.4438,425.85 807.6656,425.85 Q806.7563,425.85 806.0344,425.475 Q805.4438,425.175 805.0313,424.5375 Q804.6188,423.8906 804.6188,423.1219 L804.6188,422.4281 Q804.6188,421.6312 804.9844,420.9469 Q805.3594,420.2531 806.0156,419.8875 Q806.6719,419.5125 807.4125,419.5125 Q807.8531,419.5125 808.2375,419.6156 Q808.6313,419.7094 808.9594,419.925 Z " fill="#000000"/><text fill="#000000" font-family="sans-serif" font-size="8.4" lengthAdjust="spacing" textLength="59.7598" x="815.7" y="425.8781">FurnitureBuilder</text><line style="stroke:#181818;stroke-width:0.3;" x1="798.9" x2="876.6598" y1="432" y2="432"/><line style="stroke:#181818;stroke-width:0.3;" x1="798.9" x2="876.6598" y1="436.8" y2="436.8"/></g><!--class Engineer--><g id="elem_Engineer"><rect codeLine="71" fill="#F1F1F1" height="62.318" id="Engineer" rx="1.5" ry="1.5" style="stroke:#181818;stroke-width:0.3;" width="113.6479" x="748.8" y="26.4"/><ellipse cx="786.2616" cy="36" fill="#ADD1B2" rx="6.6" ry="6.6" style="stroke:#181818;stroke-width:0.6;"/><path d="M787.921,33.525 Q788.0147,33.3938 788.1272,33.3281 Q788.2397,33.2625 788.371,33.2625 Q788.596,33.2625 788.7366,33.4219 Q788.8772,33.5719 788.8772,33.9375 L788.8772,34.8094 Q788.8772,35.175 788.7366,35.3344 Q788.596,35.4938 788.371,35.4938 Q788.1647,35.4938 788.0429,35.3719 Q787.921,35.2594 787.8554,34.95 Q787.8272,34.7344 787.7147,34.6219 Q787.5179,34.3969 787.1522,34.2656 Q786.7866,34.1344 786.4116,34.1344 Q785.9522,34.1344 785.5679,34.3313 Q785.1929,34.5281 784.8929,34.9781 Q784.6022,35.4281 784.6022,36.0469 L784.6022,36.7031 Q784.6022,37.4438 785.1366,37.9406 Q785.671,38.4281 786.6272,38.4281 Q787.1897,38.4281 787.5835,38.2781 Q787.8179,38.1844 788.071,37.9219 Q788.2304,37.7625 788.3147,37.7156 Q788.4085,37.6687 788.5304,37.6687 Q788.7272,37.6687 788.8772,37.8281 Q789.0366,37.9781 789.0366,38.1844 Q789.0366,38.3906 788.8304,38.6344 Q788.5304,38.9812 788.0522,39.1781 Q787.4054,39.45 786.6272,39.45 Q785.7179,39.45 784.996,39.075 Q784.4054,38.775 783.9929,38.1375 Q783.5804,37.4906 783.5804,36.7219 L783.5804,36.0281 Q783.5804,35.2312 783.946,34.5469 Q784.321,33.8531 784.9772,33.4875 Q785.6335,33.1125 786.3741,33.1125 Q786.8147,33.1125 787.1991,33.2156 Q787.5929,33.3094 787.921,33.525 Z " fill="#000000"/><text fill="#000000" font-family="sans-serif" font-size="8.4" lengthAdjust="spacing" textLength="33.6246" x="798.5616" y="39.4781">Engineer</text><line style="stroke:#181818;stroke-width:0.3;" x1="749.4" x2="861.8479" y1="45.6" y2="45.6"/><rect fill="none" height="3.6" style="stroke:#C82930;stroke-width:0.6;" width="3.6" x="753.6" y="52.6863"/><text fill="#000000" font-family="sans-serif" font-size="8.4" lengthAdjust="spacing" textLength="58.8287" x="760.8" y="57.0645">IBuilder iBuilder</text><line style="stroke:#181818;stroke-width:0.3;" x1="749.4" x2="861.8479" y1="61.5727" y2="61.5727"/><ellipse cx="755.4" cy="70.459" fill="#84BE84" rx="1.8" ry="1.8" style="stroke:#038048;stroke-width:0.6;"/><text fill="#000000" font-family="sans-serif" font-size="8.4" lengthAdjust="spacing" textLength="98.0479" x="760.8" y="73.0371">Engineer(IBuilder iBuilder)</text><ellipse cx="755.4" cy="81.6316" fill="#84BE84" rx="1.8" ry="1.8" style="stroke:#038048;stroke-width:0.6;"/><text fill="#000000" font-family="sans-serif" font-size="8.4" lengthAdjust="spacing" textLength="79.3488" x="760.8" y="84.2098">BuildItem(Items item)</text></g><!--class Items--><g id="elem_Items"><rect codeLine="77" fill="#F1F1F1" height="229.9078" id="Items" rx="1.5" ry="1.5" style="stroke:#181818;stroke-width:0.3;" width="117.3803" x="816.3" y="147"/><ellipse cx="862.1719" cy="156.6" fill="#ADD1B2" rx="6.6" ry="6.6" style="stroke:#181818;stroke-width:0.6;"/><path d="M863.8313,154.125 Q863.925,153.9938 864.0375,153.9281 Q864.15,153.8625 864.2813,153.8625 Q864.5063,153.8625 864.6469,154.0219 Q864.7875,154.1719 864.7875,154.5375 L864.7875,155.4094 Q864.7875,155.775 864.6469,155.9344 Q864.5063,156.0938 864.2813,156.0938 Q864.075,156.0938 863.9531,155.9719 Q863.8313,155.8594 863.7656,155.55 Q863.7375,155.3344 863.625,155.2219 Q863.4281,154.9969 863.0625,154.8656 Q862.6969,154.7344 862.3219,154.7344 Q861.8625,154.7344 861.4781,154.9313 Q861.1031,155.1281 860.8031,155.5781 Q860.5125,156.0281 860.5125,156.6469 L860.5125,157.3031 Q860.5125,158.0438 861.0469,158.5406 Q861.5813,159.0281 862.5375,159.0281 Q863.1,159.0281 863.4938,158.8781 Q863.7281,158.7844 863.9812,158.5219 Q864.1406,158.3625 864.225,158.3156 Q864.3188,158.2687 864.4406,158.2687 Q864.6375,158.2687 864.7875,158.4281 Q864.9469,158.5781 864.9469,158.7844 Q864.9469,158.9906 864.7406,159.2344 Q864.4406,159.5812 863.9625,159.7781 Q863.3156,160.05 862.5375,160.05 Q861.6281,160.05 860.9063,159.675 Q860.3156,159.375 859.9031,158.7375 Q859.4906,158.0906 859.4906,157.3219 L859.4906,156.6281 Q859.4906,155.8312 859.8562,155.1469 Q860.2312,154.4531 860.8875,154.0875 Q861.5437,153.7125 862.2844,153.7125 Q862.725,153.7125 863.1094,153.8156 Q863.5031,153.9094 863.8313,154.125 Z " fill="#000000"/><text fill="#000000" font-family="sans-serif" font-size="8.4" lengthAdjust="spacing" textLength="20.5365" x="874.4719" y="160.0781">Items</text><line style="stroke:#181818;stroke-width:0.3;" x1="816.9" x2="933.0803" y1="166.2" y2="166.2"/><rect fill="none" height="3.6" style="stroke:#C82930;stroke-width:0.6;" width="3.6" x="821.1" y="173.2863"/><text fill="#000000" font-family="sans-serif" font-size="8.4" lengthAdjust="spacing" textLength="30.815" x="828.3" y="177.6645">String id</text><rect fill="none" height="3.6" style="stroke:#C82930;stroke-width:0.6;" width="3.6" x="821.1" y="184.459"/><text fill="#000000" font-family="sans-serif" font-size="8.4" lengthAdjust="spacing" textLength="45.2895" x="828.3" y="188.8371">String name</text><rect fill="none" height="3.6" style="stroke:#C82930;stroke-width:0.6;" width="3.6" x="821.1" y="195.6316"/><text fill="#000000" font-family="sans-serif" font-size="8.4" lengthAdjust="spacing" textLength="45.7611" x="828.3" y="200.0098">String brand</text><rect fill="none" height="3.6" style="stroke:#C82930;stroke-width:0.6;" width="3.6" x="821.1" y="206.8043"/><text fill="#000000" font-family="sans-serif" font-size="8.4" lengthAdjust="spacing" textLength="42.484" x="828.3" y="211.1824">String price</text><rect fill="none" height="3.6" style="stroke:#C82930;stroke-width:0.6;" width="3.6" x="821.1" y="217.977"/><text fill="#000000" font-family="sans-serif" font-size="8.4" lengthAdjust="spacing" textLength="42.0205" x="828.3" y="222.3551">String desc</text><rect fill="none" height="3.6" style="stroke:#C82930;stroke-width:0.6;" width="3.6" x="821.1" y="229.1496"/><text fill="#000000" font-family="sans-serif" font-size="8.4" lengthAdjust="spacing" textLength="53.6977" x="828.3" y="233.5277">String quantity</text><line style="stroke:#181818;stroke-width:0.3;" x1="816.9" x2="933.0803" y1="238.0359" y2="238.0359"/><ellipse cx="822.9" cy="246.9223" fill="#84BE84" rx="1.8" ry="1.8" style="stroke:#038048;stroke-width:0.6;"/><text fill="#000000" font-family="sans-serif" font-size="8.4" lengthAdjust="spacing" textLength="24.2771" x="828.3" y="249.5004">getId()</text><ellipse cx="822.9" cy="258.0949" fill="#84BE84" rx="1.8" ry="1.8" style="stroke:#038048;stroke-width:0.6;"/><text fill="#000000" font-family="sans-serif" font-size="8.4" lengthAdjust="spacing" textLength="54.6205" x="828.3" y="260.673">setId(String id)</text><ellipse cx="822.9" cy="269.2676" fill="#84BE84" rx="1.8" ry="1.8" style="stroke:#038048;stroke-width:0.6;"/><text fill="#000000" font-family="sans-serif" font-size="8.4" lengthAdjust="spacing" textLength="39.6785" x="828.3" y="271.8457">getName()</text><ellipse cx="822.9" cy="280.4402" fill="#84BE84" rx="1.8" ry="1.8" style="stroke:#038048;stroke-width:0.6;"/><text fill="#000000" font-family="sans-serif" font-size="8.4" lengthAdjust="spacing" textLength="84.4963" x="828.3" y="283.0184">setName(String name)</text><ellipse cx="822.9" cy="291.6129" fill="#84BE84" rx="1.8" ry="1.8" style="stroke:#038048;stroke-width:0.6;"/><text fill="#000000" font-family="sans-serif" font-size="8.4" lengthAdjust="spacing" textLength="39.6867" x="828.3" y="294.191">getBrand()</text><ellipse cx="822.9" cy="302.7855" fill="#84BE84" rx="1.8" ry="1.8" style="stroke:#038048;stroke-width:0.6;"/><text fill="#000000" font-family="sans-serif" font-size="8.4" lengthAdjust="spacing" textLength="84.9762" x="828.3" y="305.3637">setBrand(String brand)</text><ellipse cx="822.9" cy="313.9582" fill="#84BE84" rx="1.8" ry="1.8" style="stroke:#038048;stroke-width:0.6;"/><text fill="#000000" font-family="sans-serif" font-size="8.4" lengthAdjust="spacing" textLength="36.4096" x="828.3" y="316.5363">getPrice()</text><ellipse cx="822.9" cy="325.1309" fill="#84BE84" rx="1.8" ry="1.8" style="stroke:#038048;stroke-width:0.6;"/><text fill="#000000" font-family="sans-serif" font-size="8.4" lengthAdjust="spacing" textLength="78.4219" x="828.3" y="327.709">setPrice(String price)</text><ellipse cx="822.9" cy="336.3035" fill="#84BE84" rx="1.8" ry="1.8" style="stroke:#038048;stroke-width:0.6;"/><text fill="#000000" font-family="sans-serif" font-size="8.4" lengthAdjust="spacing" textLength="36.4096" x="828.3" y="338.8816">getDesc()</text><ellipse cx="822.9" cy="347.4762" fill="#84BE84" rx="1.8" ry="1.8" style="stroke:#038048;stroke-width:0.6;"/><text fill="#000000" font-family="sans-serif" font-size="8.4" lengthAdjust="spacing" textLength="77.9584" x="828.3" y="350.0543">setDesc(String desc)</text><ellipse cx="822.9" cy="358.6488" fill="#84BE84" rx="1.8" ry="1.8" style="stroke:#038048;stroke-width:0.6;"/><text fill="#000000" font-family="sans-serif" font-size="8.4" lengthAdjust="spacing" textLength="48.5543" x="828.3" y="361.227">getQuantity()</text><ellipse cx="822.9" cy="369.8215" fill="#84BE84" rx="1.8" ry="1.8" style="stroke:#038048;stroke-width:0.6;"/><text fill="#000000" font-family="sans-serif" font-size="8.4" lengthAdjust="spacing" textLength="101.7803" x="828.3" y="372.3996">setQuantity(String quantity)</text></g><!--class FirebaseAuth--><g id="elem_FirebaseAuth"><rect fill="#F1F1F1" height="28.8" id="FirebaseAuth" rx="1.5" ry="1.5" style="stroke:#181818;stroke-width:0.3;" width="69.1611" x="4.2" y="412.8"/><ellipse cx="13.2" cy="422.4" fill="#ADD1B2" rx="6.6" ry="6.6" style="stroke:#181818;stroke-width:0.6;"/><path d="M14.8594,419.925 Q14.9531,419.7938 15.0656,419.7281 Q15.1781,419.6625 15.3094,419.6625 Q15.5344,419.6625 15.675,419.8219 Q15.8156,419.9719 15.8156,420.3375 L15.8156,421.2094 Q15.8156,421.575 15.675,421.7344 Q15.5344,421.8938 15.3094,421.8938 Q15.1031,421.8938 14.9813,421.7719 Q14.8594,421.6594 14.7938,421.35 Q14.7656,421.1344 14.6531,421.0219 Q14.4562,420.7969 14.0906,420.6656 Q13.725,420.5344 13.35,420.5344 Q12.8906,420.5344 12.5063,420.7313 Q12.1313,420.9281 11.8312,421.3781 Q11.5406,421.8281 11.5406,422.4469 L11.5406,423.1031 Q11.5406,423.8438 12.075,424.3406 Q12.6094,424.8281 13.5656,424.8281 Q14.1281,424.8281 14.5219,424.6781 Q14.7563,424.5844 15.0094,424.3219 Q15.1688,424.1625 15.2531,424.1156 Q15.3469,424.0687 15.4688,424.0687 Q15.6656,424.0687 15.8156,424.2281 Q15.975,424.3781 15.975,424.5844 Q15.975,424.7906 15.7687,425.0344 Q15.4688,425.3812 14.9906,425.5781 Q14.3438,425.85 13.5656,425.85 Q12.6563,425.85 11.9344,425.475 Q11.3438,425.175 10.9313,424.5375 Q10.5187,423.8906 10.5187,423.1219 L10.5187,422.4281 Q10.5187,421.6312 10.8844,420.9469 Q11.2594,420.2531 11.9156,419.8875 Q12.5719,419.5125 13.3125,419.5125 Q13.7531,419.5125 14.1375,419.6156 Q14.5313,419.7094 14.8594,419.925 Z " fill="#000000"/><text fill="#000000" font-family="sans-serif" font-size="8.4" lengthAdjust="spacing" textLength="49.9611" x="21.6" y="425.8781">FirebaseAuth</text><line style="stroke:#181818;stroke-width:0.3;" x1="4.8" x2="72.7611" y1="432" y2="432"/><line style="stroke:#181818;stroke-width:0.3;" x1="4.8" x2="72.7611" y1="436.8" y2="436.8"/></g><!--class FirebaseFirestore--><g id="elem_FirebaseFirestore"><rect fill="#F1F1F1" height="28.8" id="FirebaseFirestore" rx="1.5" ry="1.5" style="stroke:#181818;stroke-width:0.3;" width="85.0219" x="94.5" y="412.8"/><ellipse cx="103.5" cy="422.4" fill="#ADD1B2" rx="6.6" ry="6.6" style="stroke:#181818;stroke-width:0.6;"/><path d="M105.1594,419.925 Q105.2531,419.7938 105.3656,419.7281 Q105.4781,419.6625 105.6094,419.6625 Q105.8344,419.6625 105.975,419.8219 Q106.1156,419.9719 106.1156,420.3375 L106.1156,421.2094 Q106.1156,421.575 105.975,421.7344 Q105.8344,421.8938 105.6094,421.8938 Q105.4031,421.8938 105.2813,421.7719 Q105.1594,421.6594 105.0938,421.35 Q105.0656,421.1344 104.9531,421.0219 Q104.7563,420.7969 104.3906,420.6656 Q104.025,420.5344 103.65,420.5344 Q103.1906,420.5344 102.8062,420.7313 Q102.4312,420.9281 102.1313,421.3781 Q101.8406,421.8281 101.8406,422.4469 L101.8406,423.1031 Q101.8406,423.8438 102.375,424.3406 Q102.9094,424.8281 103.8656,424.8281 Q104.4281,424.8281 104.8219,424.6781 Q105.0562,424.5844 105.3094,424.3219 Q105.4688,424.1625 105.5531,424.1156 Q105.6469,424.0687 105.7688,424.0687 Q105.9656,424.0687 106.1156,424.2281 Q106.275,424.3781 106.275,424.5844 Q106.275,424.7906 106.0688,425.0344 Q105.7688,425.3812 105.2906,425.5781 Q104.6438,425.85 103.8656,425.85 Q102.9563,425.85 102.2344,425.475 Q101.6438,425.175 101.2313,424.5375 Q100.8188,423.8906 100.8188,423.1219 L100.8188,422.4281 Q100.8188,421.6312 101.1844,420.9469 Q101.5594,420.2531 102.2156,419.8875 Q102.8719,419.5125 103.6125,419.5125 Q104.0531,419.5125 104.4375,419.6156 Q104.8313,419.7094 105.1594,419.925 Z " fill="#000000"/><text fill="#000000" font-family="sans-serif" font-size="8.4" lengthAdjust="spacing" textLength="65.8219" x="111.9" y="425.8781">FirebaseFirestore</text><line style="stroke:#181818;stroke-width:0.3;" x1="95.1" x2="178.9219" y1="432" y2="432"/><line style="stroke:#181818;stroke-width:0.3;" x1="95.1" x2="178.9219" y1="436.8" y2="436.8"/></g><!--reverse link AbstractItem to ClothingFactory--><g id="link_AbstractItem_ClothingFactory"><path d="M476.1662,97.7809 C464.5922,114.6349 458.004,127.188 447.9,147 C429.894,182.316 412.422,225.732 407.73,247.488 " fill="none" id="AbstractItem-backto-ClothingFactory" style="stroke:#181818;stroke-width:0.6;"/><polygon fill="none" points="482.28,88.878,473.1986,95.743,479.1338,99.8188,482.28,88.878" style="stroke:#181818;stroke-width:0.6;"/></g><!--reverse link AbstractItem to ClothingFactory--><g id="link_AbstractItem_ClothingFactory"><path codeLine="103" d="M495.7235,98.3609 C486.5375,115.2149 479.004,127.188 468.9,147 C450.894,182.316 433.422,225.732 420.996,247.488 " fill="none" id="AbstractItem-backto-ClothingFactory-1" style="stroke:#181818;stroke-width:0.6;"/><polygon fill="none" points="500.892,88.878,492.5625,96.6381,498.8845,100.0838,500.892,88.878" style="stroke:#181818;stroke-width:0.6;"/></g><!--reverse link AbstractItem to ElectronicFactory--><g id="link_AbstractItem_ElectronicFactory"><path d="M504.491,99.5983 C501.395,144.3703 502.662,215.1 506.802,247.494 " fill="none" id="AbstractItem-backto-ElectronicFactory" style="stroke:#181818;stroke-width:0.6;"/><polygon fill="none" points="505.236,88.824,500.8995,99.3499,508.0824,99.8466,505.236,88.824" style="stroke:#181818;stroke-width:0.6;"/></g><!--reverse link AbstractItem to ElectronicFactory--><g id="link_AbstractItem_ElectronicFactory"><path codeLine="104" d="M517.6836,99.5951 C520.9656,144.3671 519.624,215.1 515.238,247.494 " fill="none" id="AbstractItem-backto-ElectronicFactory-1" style="stroke:#181818;stroke-width:0.6;"/><polygon fill="none" points="516.894,88.824,514.0932,99.8583,521.2739,99.3319,516.894,88.824" style="stroke:#181818;stroke-width:0.6;"/></g><!--reverse link AbstractItem to FurnitureFactory--><g id="link_AbstractItem_FurnitureFactory"><path d="M526.1691,98.4848 C535.2531,115.3688 542.706,127.308 552.9,147 C571.218,182.382 589.716,225.588 602.502,247.35 " fill="none" id="AbstractItem-backto-FurnitureFactory" style="stroke:#181818;stroke-width:0.6;"/><polygon fill="none" points="521.052,88.974,522.9988,100.1905,529.3393,96.7791,521.052,88.974" style="stroke:#181818;stroke-width:0.6;"/></g><!--reverse link AbstractItem to FurnitureFactory--><g id="link_AbstractItem_FurnitureFactory"><path codeLine="105" d="M545.7336,97.907 C557.2056,114.791 563.706,127.308 573.9,147 C592.218,182.382 610.716,225.588 615.828,247.35 " fill="none" id="AbstractItem-backto-FurnitureFactory-1" style="stroke:#181818;stroke-width:0.6;"/><polygon fill="none" points="539.664,88.974,542.756,99.9303,548.7113,95.8838,539.664,88.974" style="stroke:#181818;stroke-width:0.6;"/></g><!--reverse link IBuilder to ClothingBuilder--><g id="link_IBuilder_ClothingBuilder"><path d="M694.0213,319.0219 C671.2633,354.0439 650.316,390.3 639.666,412.746 " fill="none" id="IBuilder-backto-ClothingBuilder" style="stroke:#181818;stroke-width:0.6;stroke-dasharray:7.0,7.0;"/><polygon fill="none" points="699.906,309.966,691.0026,317.0604,697.0399,320.9835,699.906,309.966" style="stroke:#181818;stroke-width:0.6;"/></g><!--reverse link IBuilder to ClothingBuilder--><g id="link_IBuilder_ClothingBuilder"><path codeLine="106" d="M709,319.3523 C689.068,354.3743 665.85,390.3 648.918,412.746 " fill="none" id="IBuilder-backto-ClothingBuilder-1" style="stroke:#181818;stroke-width:0.6;"/><polygon fill="none" points="714.342,309.966,705.8712,317.5716,712.1288,321.133,714.342,309.966" style="stroke:#181818;stroke-width:0.6;"/></g><!--reverse link IBuilder to ElectronicBuilder--><g id="link_IBuilder_ElectronicBuilder"><path d="M728.4686,320.7577 C727.0946,355.7797 728.358,390.3 731.406,412.746 " fill="none" id="IBuilder-backto-ElectronicBuilder" style="stroke:#181818;stroke-width:0.6;stroke-dasharray:7.0,7.0;"/><polygon fill="none" points="728.892,309.966,724.8714,320.6166,732.0658,320.8988,728.892,309.966" style="stroke:#181818;stroke-width:0.6;"/></g><!--reverse link IBuilder to ElectronicBuilder--><g id="link_IBuilder_ElectronicBuilder"><path codeLine="107" d="M743.7712,320.7567 C745.2292,355.7787 743.886,390.3 740.658,412.746 " fill="none" id="IBuilder-backto-ElectronicBuilder-1" style="stroke:#181818;stroke-width:0.6;"/><polygon fill="none" points="743.322,309.966,740.1743,320.9064,747.3681,320.6069,743.322,309.966" style="stroke:#181818;stroke-width:0.6;"/></g><!--reverse link IBuilder to FurnitureBuilder--><g id="link_IBuilder_FurnitureBuilder"><path d="M760.9001,319.5388 C772.6541,340.0888 782.244,354.99 795.9,376.8 C803.52,388.974 812.316,402.726 820.392,412.686 " fill="none" id="IBuilder-backto-FurnitureBuilder" style="stroke:#181818;stroke-width:0.6;stroke-dasharray:7.0,7.0;"/><polygon fill="none" points="755.538,310.164,757.7752,321.3262,764.0251,317.7515,755.538,310.164" style="stroke:#181818;stroke-width:0.6;"/></g><!--reverse link IBuilder to FurnitureBuilder--><g id="link_IBuilder_FurnitureBuilder"><path codeLine="108" d="M780.7592,319.2014 C794.2052,339.7514 803.244,354.99 816.9,376.8 C824.52,388.974 833.316,402.726 837.96,412.686 " fill="none" id="IBuilder-backto-FurnitureBuilder-1" style="stroke:#181818;stroke-width:0.6;"/><polygon fill="none" points="774.846,310.164,777.7468,321.1724,783.7717,317.2303,774.846,310.164" style="stroke:#181818;stroke-width:0.6;"/></g><!--link SignUp to FirebaseManager--><g id="link_SignUp_FirebaseManager"><path codeLine="98" d="M204.102,111.186 C192.204,122.586 180.12,134.868 169.5,147 C152.796,166.08 138.2521,185.5621 124.4281,205.4881 " fill="none" id="SignUp-to-FirebaseManager" style="stroke:#181818;stroke-width:0.6;"/><polygon fill="#181818" points="122.376,208.446,127.426,205.3772,124.0861,205.9811,123.4822,202.6411,122.376,208.446" style="stroke:#181818;stroke-width:0.6;"/></g><!--link SignUp to User--><g id="link_SignUp_User"><path codeLine="99" d="M264.3,111.03 C264.3,137.298 264.3,165.672 264.3,193.356 " fill="none" id="SignUp-to-User" style="stroke:#181818;stroke-width:0.6;"/><polygon fill="#181818" points="264.3,196.956,266.7,191.556,264.3,193.956,261.9,191.556,264.3,196.956" style="stroke:#181818;stroke-width:0.6;"/></g><!--link LogIn to FirebaseManager--><g id="link_LogIn_FirebaseManager"><path codeLine="100" d="M85.926,94.278 C86.298,125.964 86.8073,168.8823 87.2333,204.7863 " fill="none" id="LogIn-to-FirebaseManager" style="stroke:#181818;stroke-width:0.6;"/><polygon fill="#181818" points="87.276,208.386,89.6118,202.9579,87.2404,205.3862,84.8121,203.0149,87.276,208.386" style="stroke:#181818;stroke-width:0.6;"/></g><!--link FirebaseManager to FirebaseAuth--><g id="link_FirebaseManager_FirebaseAuth"><path codeLine="101" d="M72.06,315.324 C61.836,349.428 50.3241,387.8357 43.9221,409.1837 " fill="none" id="FirebaseManager-to-FirebaseAuth" style="stroke:#181818;stroke-width:0.6;"/><polygon fill="#181818" points="42.888,412.632,46.738,408.149,43.7497,409.7584,42.1403,406.7702,42.888,412.632" style="stroke:#181818;stroke-width:0.6;"/></g><!--link FirebaseManager to FirebaseFirestore--><g id="link_FirebaseManager_FirebaseFirestore"><path codeLine="102" d="M103.74,315.324 C113.964,349.428 125.4759,387.8357 131.8779,409.1837 " fill="none" id="FirebaseManager-to-FirebaseFirestore" style="stroke:#181818;stroke-width:0.6;"/><polygon fill="#181818" points="132.912,412.632,133.6597,406.7702,132.0503,409.7584,129.062,408.149,132.912,412.632" style="stroke:#181818;stroke-width:0.6;"/></g><!--link Engineer to IBuilder--><g id="link_Engineer_IBuilder"><path codeLine="109" d="M795.006,88.824 C783.648,121.962 766.5688,171.8063 753.3508,210.3863 " fill="none" id="Engineer-to-IBuilder" style="stroke:#181818;stroke-width:0.6;"/><polygon fill="#181818" points="752.184,213.792,756.2047,209.4614,753.1564,210.9539,751.6638,207.9056,752.184,213.792" style="stroke:#181818;stroke-width:0.6;"/></g><!--link Engineer to Items--><g id="link_Engineer_Items"><path codeLine="110" d="M815.994,88.824 C821.466,104.784 827.3676,122.0002 834.6996,143.4082 " fill="none" id="Engineer-to-Items" style="stroke:#181818;stroke-width:0.6;"/><polygon fill="#181818" points="835.866,146.814,836.3869,140.9277,834.894,143.9758,831.8458,142.4829,835.866,146.814" style="stroke:#181818;stroke-width:0.6;"/></g><!--SRC=[fLLTRziW57tth-1jYL8lxzKqgMaQAL8tRShw0uXzGz3iwmpmjYpRVnyG883ZhDBwuFJUS-1-7U3DNgc3l9_F3mr5rRVDswfhvrL3fInhJfcWRL5OasmumvS3EHL4_vLanGLigOI7Nkr9QxuPO7wbwWIGUkkW5mc28Fmmlndx0qNADDeYiyYCTFWeW2gOB7gi6o2IVeTwZL9Hh62ZD39rUvmpMoYSUCzpnzRupF6hzlpn1LZdw_F__upYuFckFWszMF5g07EtgsFjED9cFEKKljBuR7lNfvcFBezOxKM7_1VKX87oDGMUzfbmiRtSnkNPoPwIT3PAS6I4rxudPxlNJAGjf5veAM_SvcQlILXzvobcqLt2Zx9vClQbBEyOOQ_hk98Nbr6yFFYoh6t9T2kLe9KYvzeVdBbMqBeUpCYsvqtzs7HghvTFfkIUh1V6vOJl24yDLCeqlXgbh7g1NFK2KaRel8-nqXbquaZWfmAiqwmSzHBj5UGGzoQt0EnRykLu05SvX1ZMh5nsrjZvBKts71M87QqWr1Hwjz4JMbuKCBsuFqOZEOyZG0j1iVROrXWH-4dmAYmy62C2bo0hZzNw_mZwtEjRaQkZXxyvUphilo-2juS6Ma0bByFAs_zlRkZ-BQhV5nb7YCvVQ2XFzUI9am71bsnDCzY9-KZ2zJUgzUmyfKStF-33mssdaRhi35ANQNtgyTs-Ud2bjGOYOKua4MrCDCoB9kAEguXv5KNiSLan9wk8F2Op5iaiej-KddkBo_9zVhN7a7rcpw_UDMR-viGS-xZS8eH7faYkltU_opA_agum1ZVH5Kv-0HL1jKaGB_4K7Por3C_FLn4EaIboVTrhr5_y1G00]--></g></svg>